<?xml version="1.0" encoding="UTF-8" standalone="no"?>
<svg
   width="19066488"
   height="1201808.4"
   viewBox="0 0 19066488 1201808.4"
   version="1.1"
   xml:space="preserve"
   style="clip-rule:evenodd;fill-rule:evenodd;stroke-linejoin:round;stroke-miterlimit:2"
   id="svg17"
   sodipodi:docname="hyperionblack.svg"
   inkscape:export-filename="..\..\Adesivi\hyperionblack.png"
   inkscape:export-xdpi="96"
   inkscape:export-ydpi="96"
   xmlns:inkscape="http://www.inkscape.org/namespaces/inkscape"
   xmlns:sodipodi="http://sodipodi.sourceforge.net/DTD/sodipodi-0.dtd"
   xmlns="http://www.w3.org/2000/svg"
   xmlns:svg="http://www.w3.org/2000/svg"><defs
   id="defs17" /><sodipodi:namedview
   id="namedview17"
   pagecolor="#ffffff"
   bordercolor="#000000"
   borderopacity="0.25"
   inkscape:showpageshadow="2"
   inkscape:pageopacity="0.0"
   inkscape:pagecheckerboard="0"
   inkscape:deskcolor="#d1d1d1"><inkscape:page
     x="0"
     y="0"
     width="19066488"
     height="1201808.4"
     id="page2"
     margin="0"
     bleed="0" /></sodipodi:namedview>
    <g
   id="Sfondo"
   transform="matrix(1.431641,0,0,1.431641,15875086,157620.86)">
        <g
   transform="matrix(8.1512852,0,0,8.1512852,-10020.477,-1159.8608)"
   id="g2">
            <g
   transform="translate(1138.195,339.77)"
   id="g1">
                <text
   x="0"
   y="0"
   style="font-weight:700;font-size:48px;font-family:Arial-BoldMT, Arial, sans-serif"
   id="text1">SOLUTIONS</text>
            </g>
        </g>
        <path
   id="path2"
   d="m -4874.8227,154.06572 c -80.6766,-0.53414 -84.2138,4.40099 -88.6213,15.453 -3.3099,8.29458 -2.6915,8.49209 -54.768,246.40885 -11.7531,43.25669 -188.5141,837.18113 -202.3484,903.11163 -7.7099,36.7756 -29.1616,56.2193 8.8825,56.5661 190.6961,1.7442 195.627,-2.6518 199.036,-16.8725 74.6908,-311.4383 62.4228,-330.9176 97.9498,-331.2446 628.1387,-5.8072 790.1761,52.9857 844.2742,-223.6688 99.1088,-506.83168 153.6199,-530.08129 66.1651,-603.09739 -62.2837,-51.98731 -105.601,-44.50931 -494.0887,-44.33093 -263.5635,0.11892 -244.6255,146.29265 -273.2453,119.04044 -10.8613,-10.34593 48.1107,-117.79804 6.0432,-119.02686 -46.9233,-1.37005 -82.387,-2.16086 -109.2791,-2.33894 z m 663.8411,165.0612 c 24.5171,-0.0198 30.5708,3.36124 25.0113,27.62066 -54.9206,239.76001 -54.3028,239.04461 -59.892,259.61755 -32.6828,149.19348 -45.7721,255.49474 -73.8171,259.02267 -2.5171,0.31711 -563.3508,0.45139 -565.7292,-0.054 -29.2639,-6.15405 -13.4007,-22.09431 64.0154,-368.20731 38.3513,-171.46101 41.0956,-175.01817 55.7821,-177.33708 0.4261,-0.0595 0.2403,-0.42464 554.6295,-0.66248 z"
   style="stroke-width:9.90989" />
        <path
   id="path3"
   d="m -616.23208,154.11983 c -170.17173,-0.17223 -342.70201,4.09923 -374.35917,14.12804 -184.39345,58.40893 -163.36065,124.52041 -262.87585,566.87832 -14.4387,64.13684 -114.4741,288.63141 164.1426,292.30801 614.46303,8.1162 642.36136,-4.6766 692.773,-27.79636 134.96286,-61.91703 124.54558,-128.51994 213.40761,-532.15989 27.46032,-121.36648 91.567434,-243.49306 -72.85755,-300.81189 -22.24771,-7.7545 -190.05891,-12.37409 -360.23064,-12.54623 z m 220.55959,165.03414 c 44.31705,-0.0198 17.75853,42.22498 -33.81256,285.15615 -52.56209,242.17802 -48.27705,245.61061 -65.53018,258.1169 -6.06485,4.39999 -554.71037,6.89491 -562.98507,-1.27085 -12.1298,-11.95133 13.6568,-77.3833 42.5739,-225.31821 4.8162,-24.62609 45.60233,-233.24217 69.69328,-305.73306 4.19189,-12.60538 10.15963,-10.73291 550.06063,-10.95093 z"
   style="stroke-width:9.90989" />
        <path
   id="path4"
   d="m -3002.4348,155.17434 c -19.6453,0.0872 -34.093,1.21674 -39.152,1.21674 -504.0569,-0.0198 -503.7487,-1.30949 -556.063,8.67968 -201.3489,66.81251 -171.7968,118.40293 -271.0146,558.14462 -15.7568,69.84495 -104.3899,263.29561 103.2224,300.63612 60.8963,10.9504 61.339,6.2683 773.4047,3.5827 57.9134,-0.218 51.2619,-21.7024 73.6682,-134.06076 4.0234,-20.15673 5.9618,-27.47657 -14.4526,-27.82342 -57.0513,-0.97117 -56.2763,1.30642 -713.2826,0.0677 -61.0053,-0.10901 -30.3546,-32.04147 -17.2239,-91.20355 7.7792,-35.03147 0.8866,-99.96517 56.8774,-100.30211 708.3692,-4.29098 733.4244,20.70584 744.9992,-28.67517 84.8089,-362.07784 78.0335,-375.29487 63.1092,-404.43987 -39.4285,-76.97759 -145.1542,-86.08419 -204.0924,-85.82267 z m -281.1813,163.9391 c 129.441,-0.0669 258.5719,0.0878 261.2674,0.81123 23.8829,6.4117 -21.3836,184.99663 -37.9628,189.69392 -12.0009,3.40901 -231.8212,-0.86672 -506.5136,1.83869 -1.1594,-0.15856 -40.8307,8.21619 -33.1902,-25.90358 36.9441,-164.97002 43.2943,-165.57334 53.2538,-165.94001 3.9441,-0.14864 133.7053,-0.43336 263.1454,-0.50025 z"
   style="stroke-width:9.90989" />
        <path
   d="m -7189.1173,268.63927 c 0.9711,2.64595 -1.9027,5.76756 -0.9316,8.42342 2.0712,5.609 5.4604,5.66846 6.1243,5.68828 5.9757,0.11891 2.9829,-5.50991 9.3748,-5.38108 12.8333,-18.41258 34.8234,-78.44673 160.3124,-113.12145 2.5369,-0.7036 471.384,-34.42698 571.3153,19.00718 107.0666,57.25937 62.9774,153.69256 15.5586,363.29676 -41.4333,183.13486 -39.5603,182.94657 -80.617,366.40846 -25.0919,112.15026 -30.7108,113.55746 -42.127,114.24126 -193.788,11.7036 -202.2114,0.1487 -199.506,-15.6279 8.5225,-49.69811 13.4081,-48.04316 137.2421,-615.17656 3.8253,-17.5306 32.5243,-76.98997 -6.7486,-77.24763 -45.1197,-0.28739 -552.5361,-3.52792 -563.982,1.51621 -34.1495,15.07296 -149.035,692.47378 -177.625,703.98908 -8.8594,3.5675 -192.361,6.8378 -200.5069,-2.5568 -7.9279,-9.127 -2.5964,-11.2675 73.9774,-366.48773 14.3396,-66.52512 175.1078,-812.32402 188.8528,-829.51769 7.6207,-9.53332 168.7953,-56.06027 193.4907,-64.07738 42.4441,-13.78466 42.7117,-2.48738 42.1468,0.83243 -6.5108,38.06391 -93.2917,392.09492 -101.6359,426.13541 -10.1675,41.49273 -10.3954,40.40264 -24.7152,79.65573 z"
   id="path5"
   style="stroke-width:9.90989" />
        <path
   d="m 213.10823,467.57051 c -9.38467,44.28732 -113.299835,534.39109 -126.361077,551.63429 -7.194584,9.5036 -205.907803,21.455 -211.278963,-7.5711 -1.45676,-7.8586 125.3007124,-559.8992 140.096186,-633.40089 42.899936,-213.14203 45.972004,-217.47265 64.008013,-221.2186 4.023418,-0.83243 184.779911,-1.26846 189.586201,0.12883 30.68104,8.93873 -45.74407,156.30878 -1.45675,120.45478 16.89637,-13.68557 5.68828,-65.00891 148.67816,-110.03948 24.90357,-7.83872 483.05784,-36.39904 582.52346,16.44052 106.55124,56.59541 57.66564,159.01418 24.36844,322.56709 -8.245,40.51165 -72.29269,355.131 -113.44849,504.19565 -6.62972,24.0216 -79.97285,16.6486 -146.01239,16.6784 -5.63874,0.01 -65.58369,0.04 -70.26116,-5.2622 -12.1198,-13.6955 161.07544,-682.3062 143.45564,-698.54852 -5.77747,-5.34143 -574.98203,-11.48557 -589.30183,3.54775 -7.97746,8.37386 -6.75855,9.37476 -34.59544,140.39348 z"
   id="path6"
   style="stroke-width:9.90989" />
        <path
   d="m -6010.3155,831.58078 c -26.945,-73.50169 -26.836,-73.0062 -29.1054,-79.37826 -4.9053,-13.80448 -3.3396,-13.6261 -8.027,-26.97473 -69.5377,-197.95016 -206.2447,-553.89378 -194.4817,-565.25052 7.4424,-7.19458 207.2754,-2.77477 207.9988,-2.6063 33.5748,8.05675 201.2403,579.92707 219.5438,582.68202 19.6712,2.95315 400.7562,-498.79476 468.0345,-576.12167 15.618,-17.95673 197.8015,-8.93872 214.9952,-8.08647 22.9612,1.13964 -1.9226,32.12788 -52.0567,91.57734 -20.6324,24.45762 -893.2879,1112.18761 -901.8401,1119.45151 -16.2919,13.8541 -208.3853,13.6559 -213.9844,1.0802 -2.4874,-5.5694 162.1556,-209.4556 290.4491,-369.62922 57.5666,-71.87647 29.036,-80.9242 -1.5261,-166.7439 z"
   id="path7"
   style="stroke-width:9.90989" />
        
        
        <path
   d="m -2452.2473,576.62891 c -7.2045,34.83328 -76.217,368.56882 -97.5134,433.77589 -6.4711,19.8297 -21.6035,17.7685 -194.3726,17.1243 -37.9252,-0.1486 -10.1775,-57.59627 12.863,-173.80961 59.4197,-299.66532 72.0549,-296.31578 133.1394,-595.80272 20.9694,-102.80526 32.6036,-101.46742 52.0072,-101.52688 153.3457,-0.41621 187.3465,-6.65945 182.4511,23.24862 -7.0559,43.12786 -50.3621,150.125 6.6891,69.75575 66.2774,-93.37103 189.7547,-98.11787 445.1724,-92.95482 219.5537,4.44954 178.5664,170.10335 173.6213,190.10152 -12.5459,50.74857 -5.4207,51.71974 -22.9414,100.93228 -0.773,2.17027 -6.4315,18.05583 -21.9504,18.61079 -190.4385,6.79819 -197.8511,-3.51802 -196.3745,-19.23511 3.4883,-36.99364 43.3162,-126.67819 7.9775,-127.64936 -33.4856,-0.92162 -400.5283,-11.02971 -418.6832,5.65855 -15.2711,14.04232 -8.8099,16.86664 -62.0855,251.7708 z"
   id="path10"
   style="stroke-width:9.90989" />
        <path
   d="m -1560.1387,328.90135 c 2.7649,-11.98107 23.5856,-102.07192 35.4972,-149.57005 6.4514,-25.71618 16.1631,-24.01168 197.643,-23.09006 30.6018,0.14865 20.345,14.21079 14.3297,43.61345 -25.627,125.25117 -110.1485,493.98846 -110.4061,495.31639 -0.2081,1.07026 -66.7035,314.16352 -75.0873,324.38062 -15.5982,19.0171 -179.7358,8.8892 -195.3439,7.9279 -27.7279,-1.7045 -8.5423,-62.99721 -2.9828,-86.03772 35.1999,-145.84393 125.7169,-563.47664 136.3502,-612.54053 z"
   id="path11"
   style="stroke-width:9.90989" />
        
        
        
        <path
   d="m -7189.1173,268.63927 14.5675,8.73062 c -6.3919,-0.12883 -3.3991,5.49999 -9.3748,5.38108 -0.6639,-0.0198 -4.0531,-0.0793 -6.1243,-5.68828 -0.9711,-2.65586 1.9027,-5.77747 0.9316,-8.42342 z"
   id="path15"
   style="stroke-width:9.90989" />
    </g>
    <g
   transform="matrix(11.666801,0,0,11.666801,15860485,156016.93)"
   id="g17">
        <g
   transform="translate(-27.181115,-26.331705)"
   id="g16">
            <g
   transform="translate(961.378,362.09)"
   id="g15">
                <text
   x="0"
   y="0"
   style="font-weight:700;font-size:50px;font-family:Arial-BoldMT, Arial, sans-serif"
   id="text15">ENERGY</text>
            </g>
        </g>
    </g>
</svg>
