<?xml version="1.0" encoding="UTF-8" standalone="no"?>
<svg
   width="178971.36"
   height="31352.445"
   viewBox="0 0 178971.36 31352.445"
   version="1.1"
   xml:space="preserve"
   style="clip-rule:evenodd;fill-rule:evenodd;stroke-linejoin:round;stroke-miterlimit:2"
   id="svg4"
   sodipodi:docname="famar.svg"
   xmlns:inkscape="http://www.inkscape.org/namespaces/inkscape"
   xmlns:sodipodi="http://sodipodi.sourceforge.net/DTD/sodipodi-0.dtd"
   xmlns="http://www.w3.org/2000/svg"
   xmlns:svg="http://www.w3.org/2000/svg"><defs
   id="defs4" /><sodipodi:namedview
   id="namedview4"
   pagecolor="#ffffff"
   bordercolor="#000000"
   borderopacity="0.25"
   inkscape:showpageshadow="2"
   inkscape:pageopacity="0.0"
   inkscape:pagecheckerboard="0"
   inkscape:deskcolor="#d1d1d1"><inkscape:page
     x="0"
     y="0"
     width="178971.36"
     height="31352.445"
     id="page2"
     margin="0"
     bleed="0" /></sodipodi:namedview>
    <g
   id="g4"
   transform="translate(-72516.555,-50703.962)">
        
        <path
   d="m 281.632,278.87 17.155,-52.152 h 21.916 l 1.071,28.691 17.884,-28.734 h 25.776 l -14.454,45.333 32.809,-45.246 h 15.869 v 45.074 l 14.324,-45.074 c 5.36,0.085 10.722,0.129 14.625,0.129 3.902,0 6.348,-0.086 8.577,0.042 2.273,0.086 4.288,0.343 6.047,0.729 1.801,0.387 3.303,0.943 4.633,1.63 1.374,0.644 2.616,1.458 3.729,2.401 1.073,0.945 2.102,2.017 2.961,3.174 0.859,1.201 1.587,2.487 2.145,3.731 0.513,1.286 0.901,2.573 1.07,3.99 0.173,1.456 0.173,3.044 0.044,4.674 -0.127,1.587 -0.428,3.174 -0.858,4.632 -0.469,1.458 -1.074,2.83 -1.887,4.117 -0.773,1.288 -1.715,2.53 -2.829,3.646 -2.146,2.187 -5.061,4.117 -7.72,5.102 -1.288,0.473 -2.446,0.73 -3.647,0.816 l 13.124,20.886 h -18.098 l -13.123,-20.628 4.16,-13.896 h 6.133 c 0.514,0 1.029,-0.087 1.502,-0.173 0.427,-0.085 0.899,-0.214 1.241,-0.384 0.386,-0.173 0.732,-0.388 1.03,-0.6 1.201,-1.031 1.457,-1.931 1.629,-3.045 0.128,-0.816 0.128,-1.717 -0.127,-2.574 -0.131,-0.387 -0.26,-0.729 -0.431,-1.03 -0.168,-0.256 -0.383,-0.516 -0.6,-0.728 -0.256,-0.171 -0.515,-0.345 -0.856,-0.516 -0.3,-0.128 -0.732,-0.257 -1.244,-0.342 -0.556,-0.088 -1.289,-0.173 -2.745,-0.173 -1.502,-0.044 -3.774,0 -6.004,0.042 l -13.551,44.004 h -29.936 l 0.127,-9.091 -15.954,-0.173 -7.635,9.307 h -31.135 l 5.489,-22.859 -13.596,22.9 -13.98,0.043 -0.687,-23.157 -8.105,23.157 h -32.208 l -0.043,-9.177 h -16.383 l -6.262,9.177 -19.6,-0.127 6.433,-8.835 25.904,-35.255 -35.082,0.086 -3.002,9.136 27.748,0.043 -9.435,12.439 -21.873,0.04 -7.848,22.517 h -18.914 l 19.043,-59.957 h 75.654 z"
   style="fill:#ffffff"
   id="path1" />
        <path
   d="m 371.366,261.628 9.422,-10.507 -0.709,10.507 z"
   style="fill:#19abe3"
   id="path2" />
        <path
   d="m 254.955,261.628 9.423,-10.507 -0.709,10.507 z"
   style="fill:#19abe3"
   id="path3" />
        <path
   d="m 461,193.607 h -0.607 c 0.002,-0.37 0.712,-0.502 0.607,0 z"
   style="fill:#231f20"
   id="path4" />
    </g>
</svg>
