<?xml version="1.0" encoding="UTF-8" standalone="no"?>
<!DOCTYPE svg PUBLIC "-//W3C//DTD SVG 1.1//EN" "http://www.w3.org/Graphics/SVG/1.1/DTD/svg11.dtd">
<svg width="100%" height="100%" viewBox="0 0 400 418" version="1.1" xmlns="http://www.w3.org/2000/svg" xmlns:xlink="http://www.w3.org/1999/xlink" xml:space="preserve" xmlns:serif="http://www.serif.com/" style="fill-rule:evenodd;clip-rule:evenodd;stroke-linejoin:round;stroke-miterlimit:2;">
    <g id="svgg">
        <path id="path0" d="M226.786,25.033C226.354,26.041 226,27.269 226,27.76C226,28.252 225.349,30.442 224.554,32.627C223.759,34.812 222.961,37.32 222.782,38.2C222.603,39.08 221.893,41.33 221.204,43.2C220.516,45.07 219.677,47.5 219.34,48.6C216.533,57.76 215.961,59.644 215.447,61.4C215.126,62.5 214.398,64.659 213.831,66.198C213.264,67.737 212.8,69.482 212.8,70.075C212.8,70.668 212.62,71.264 212.4,71.4C212.18,71.536 212,71.999 212,72.429C212,73.184 211.856,73.574 210.862,75.495C210.608,75.987 210.4,76.741 210.4,77.171C210.4,77.601 210.241,78.051 210.048,78.17C209.854,78.29 209.597,78.796 209.477,79.294C208.494,83.363 207.886,85.511 206.787,88.8C206.089,90.89 204.968,94.31 204.296,96.4C203.624,98.49 202.947,100.38 202.792,100.6C202.637,100.82 202.398,101.864 202.26,102.921C202.122,103.977 201.573,105.597 201.039,106.521C200.506,107.444 199.838,108.99 199.555,109.956C199.055,111.659 197.024,114 193.528,116.902C191.001,118.998 192.152,119.237 204.19,119.11L214.6,119L214.6,118C214.6,117.237 214.363,116.967 213.6,116.862C213.05,116.786 212.374,116.538 212.098,116.311C211.821,116.084 211.015,115.779 210.307,115.634C205.802,114.713 205.188,107.999 208.704,98.095C209.349,96.277 209.994,94.672 210.138,94.528C210.282,94.384 210.4,93.686 210.4,92.976C210.4,91.187 210.309,91.2 222.417,91.2C234.165,91.2 234.799,91.332 234.801,93.775C234.801,94.229 235.446,96.49 236.235,98.8C237.024,101.11 237.741,103.45 237.828,104C238.203,106.356 238.692,108.259 239.13,109.074C240.856,112.282 237.775,116.8 233.862,116.8C231.89,116.8 231.411,117.173 231.801,118.404C232.119,119.404 260.798,119.675 262.145,118.689C262.995,118.069 262.632,116.8 261.605,116.8C258.567,116.8 256.16,111.687 250.494,93.2C249.921,91.33 249.305,89.629 249.126,89.42C248.947,89.211 248.797,88.581 248.794,88.02C248.788,86.949 247.943,84.209 247.474,83.741C247.323,83.59 247.2,83.083 247.2,82.613C247.2,82.144 247.051,81.589 246.87,81.38C246.688,81.171 246.314,80.19 246.038,79.2C245.106,75.849 243.146,69.413 242.323,67C241.872,65.68 241.146,63.34 240.709,61.8C240.272,60.26 239.296,57.2 238.54,55C237.785,52.8 237.09,50.396 236.997,49.657C236.904,48.919 236.675,48.109 236.488,47.857C236.301,47.606 235.746,46.05 235.253,44.4C234.76,42.75 233.737,39.493 232.979,37.162C232.22,34.831 231.6,32.482 231.6,31.942C231.6,31.402 231.452,30.789 231.272,30.58C231.092,30.371 230.518,28.85 229.998,27.2C228.53,22.547 228.004,22.192 226.786,25.033M133.467,25.067C132.43,26.103 133.697,27.182 135.965,27.195C137.268,27.202 140.8,29.516 140.8,30.362C140.8,30.735 140.966,31.211 141.17,31.42C142.105,32.381 142.919,104.841 142.005,105.755C141.782,105.978 141.6,107.453 141.6,109.034C141.6,113.829 139.277,116.593 135,116.889C133.087,117.022 132.406,118.525 134.079,118.921C135.635,119.289 165.365,119.227 165.939,118.854C167.288,117.979 166.253,117.005 163.757,116.8C161.291,116.598 160.453,116.18 159.003,114.433C157.2,112.263 157.229,112.589 157.214,93.947L157.2,76.093L158.1,75.852C158.595,75.719 161.014,75.608 163.476,75.605C166.023,75.602 168.059,75.428 168.2,75.2C168.336,74.98 169.212,74.8 170.147,74.8C171.082,74.8 172.196,74.536 172.624,74.213C173.051,73.89 173.748,73.62 174.174,73.613C177.019,73.566 183.683,67.757 185.009,64.168C185.408,63.086 185.943,61.93 186.197,61.6C188.763,58.261 188.988,46.162 186.61,39.414C184.926,34.638 176.868,25.969 175.117,27.051C174.923,27.171 174.329,26.983 173.796,26.634C173.264,26.286 172.136,26 171.291,26C170.445,26 169.404,25.736 168.976,25.413C168.159,24.794 134.071,24.462 133.467,25.067M163.376,29.813C163.804,30.136 164.44,30.4 164.792,30.4C165.923,30.4 169.438,34.106 170.564,36.488C173.114,41.878 173.578,54.462 171.498,61.8C170.643,64.817 166.057,70.4 164.434,70.4C164.164,70.4 163.661,70.682 163.316,71.027C162.832,71.511 162.132,71.607 160.245,71.45C158.9,71.338 157.665,71.235 157.5,71.223C157.129,71.195 157.096,29.837 157.467,29.467C157.988,28.945 162.586,29.215 163.376,29.813M223.962,59.929C224.669,61.249 226,65.583 226,66.564C226,67.108 226.18,67.664 226.4,67.8C226.62,67.936 226.8,68.476 226.8,69C226.8,69.524 226.944,70.042 227.121,70.151C227.297,70.26 227.693,71.272 228,72.4C228.307,73.528 228.703,74.54 228.879,74.649C229.056,74.758 229.2,75.456 229.2,76.2C229.2,76.944 229.38,77.664 229.6,77.8C229.82,77.936 230,78.451 230,78.944C230,79.437 230.149,80.011 230.33,80.22C231.018,81.01 231.741,84.019 231.34,84.42C231.096,84.664 227.648,84.775 222.372,84.708L213.8,84.6L213.844,83C213.889,81.396 214.266,79.983 216.142,74.4C216.696,72.75 217.362,70.59 217.62,69.6C217.879,68.61 218.231,67.44 218.403,67C218.574,66.56 219.093,65.231 219.557,64.047C220.021,62.862 220.4,61.468 220.4,60.948C220.4,60.428 220.889,58.932 221.486,57.624L222.572,55.247L223.083,57.244C223.364,58.343 223.76,59.551 223.962,59.929M155.776,159.387C155.349,159.71 154.64,159.986 154.2,160C153.76,160.014 153.051,160.29 152.624,160.613C152.196,160.936 151.554,161.2 151.196,161.2C149.894,161.2 144.064,167.415 142.941,170C142.702,170.55 142.312,171.45 142.074,172C141.661,172.954 140.582,176.357 139.6,179.8C138.917,182.192 139.492,193.374 140.401,195.4C140.598,195.84 141.025,197.01 141.349,198C142.86,202.617 145.773,206.832 150.166,210.758C150.808,211.331 151.91,212.356 152.615,213.035C153.319,213.714 155.135,215.113 156.648,216.144C161.683,219.572 164.591,221.656 165.426,222.432C165.88,222.854 166.378,223.2 166.533,223.2C166.929,223.2 169.535,225.895 170.984,227.801C173.547,231.176 174.4,232.684 174.4,233.842C174.4,234.501 174.595,235.235 174.833,235.473C175.274,235.914 175.138,240.222 174.584,243.4C174.333,244.835 171.341,249.71 170.225,250.501C166.465,253.168 161.42,254.049 158.485,252.553C155.597,251.08 152.349,248.684 151.084,247.093C150.378,246.205 149.305,245.015 148.7,244.45C148.095,243.884 147.6,243.175 147.6,242.873C147.6,242.571 147.269,241.846 146.865,241.262C145.779,239.694 143.686,235.179 143.405,233.8C142.977,231.698 142.272,229.412 141.93,229.02C141.749,228.811 141.6,227.842 141.6,226.867C141.6,225.021 140.248,222.199 139.566,222.621C138.898,223.034 139.099,256.676 139.771,256.933C140.417,257.181 140.977,256.628 141.537,255.187C143.337,250.554 145.479,249.863 149.558,252.6C151.034,253.59 152.395,254.4 152.583,254.4C152.771,254.4 153.514,254.85 154.236,255.4C154.957,255.95 155.964,256.406 156.473,256.413C156.983,256.42 157.749,256.69 158.176,257.013C159.292,257.856 166.498,257.846 167.2,257C167.474,256.67 168.136,256.4 168.671,256.4C170.167,256.4 174.49,253.903 175.928,252.208C176.298,251.773 177.251,250.783 178.047,250.008C178.843,249.234 179.632,248.15 179.8,247.6C179.968,247.05 180.809,245.592 181.668,244.361C182.551,243.096 183.328,241.443 183.454,240.561C183.577,239.702 183.975,238.19 184.339,237.2C185.294,234.6 185.307,220.772 184.356,219C184.001,218.34 183.595,217.043 183.454,216.118C183.312,215.192 182.747,213.59 182.198,212.558C181.649,211.526 181.2,210.426 181.2,210.114C181.2,209.803 180.34,208.705 179.289,207.674C178.238,206.643 176.966,205.215 176.462,204.5C175.958,203.785 175.367,203.2 175.149,203.2C174.931,203.2 173.999,202.493 173.077,201.629C171.657,200.3 167.075,196.88 161.676,193.122C160.948,192.615 160.106,191.975 159.805,191.7C159.504,191.425 159.094,191.2 158.894,191.2C158.695,191.2 157.71,190.39 156.706,189.4C155.702,188.41 154.726,187.6 154.537,187.6C154.074,187.6 150.862,182.825 149.94,180.766C147.662,175.677 150.593,167.127 155.416,164.792C156.395,164.318 157.297,163.766 157.421,163.565C158.003,162.624 163.119,163.173 165.2,164.4C166.319,165.06 167.366,165.6 167.525,165.6C168.674,165.6 175.186,173.119 175.209,174.472C175.214,174.762 175.57,175.45 176,176C176.43,176.55 176.786,177.317 176.791,177.705C176.8,178.388 176.956,178.796 177.938,180.695C178.192,181.187 178.4,181.941 178.4,182.371C178.4,182.801 178.58,183.264 178.8,183.4C179.02,183.536 179.2,184.425 179.2,185.375C179.2,187.653 180.27,190.29 180.927,189.633C181.549,189.011 181.72,160.577 181.109,159.431C180.579,158.439 179.2,161.023 179.2,163.009C179.2,166.266 176.449,166.417 172.07,163.4C170.313,162.19 168.611,161.2 168.287,161.2C167.963,161.2 167.474,160.93 167.2,160.6C166.926,160.27 166.206,160 165.6,160C164.994,160 164.274,159.73 164,159.4C163.303,158.56 156.883,158.55 155.776,159.387M225,159.412C224.12,159.729 222.918,159.991 222.329,159.994C221.739,159.997 220.987,160.27 220.657,160.6C220.327,160.93 219.802,161.2 219.49,161.2C218.107,161.2 212.462,164.88 208.8,168.169C207.39,169.435 203.232,174.836 201.114,178.153C199.973,179.939 196.1,189.934 195.708,192.105C195.598,192.713 195.349,193.308 195.154,193.429C194.959,193.549 194.8,194.501 194.8,195.544C194.8,196.587 194.637,197.611 194.439,197.82C193.17,199.155 193.164,222.069 194.432,223.38C194.635,223.589 194.8,224.343 194.8,225.056C194.8,225.769 194.98,226.464 195.2,226.6C195.42,226.736 195.6,227.199 195.6,227.629C195.6,228.059 195.771,228.723 195.981,229.105C196.19,229.487 196.928,231.42 197.621,233.4C198.315,235.38 199.313,237.671 199.841,238.491C200.368,239.312 200.8,240.199 200.8,240.462C200.8,241.943 208.067,250.42 209.31,250.387C209.931,250.371 210.388,250.017 214.166,246.62C218.057,243.121 218.233,242.802 217.206,241.117C216.764,240.393 216.402,239.485 216.401,239.1C216.401,238.715 216.237,238.4 216.038,238.4C215.561,238.4 214.4,234.963 214.4,233.552C214.4,232.945 214.22,232.336 214,232.2C213.78,232.064 213.6,231.344 213.6,230.6C213.6,229.856 213.42,229.136 213.2,229C212.98,228.864 212.8,227.899 212.8,226.856C212.8,225.813 212.634,224.789 212.43,224.58C211.214,223.331 211.177,194.503 212.387,191.8C212.584,191.36 212.837,190.46 212.948,189.8C213.06,189.14 213.333,187.88 213.556,187C213.779,186.12 214.151,184.509 214.383,183.421C214.615,182.332 215.164,180.7 215.603,179.794C216.041,178.889 216.4,178.014 216.4,177.852C216.4,175.278 225.883,166.4 228.633,166.4C228.945,166.4 229.2,166.22 229.2,166C229.2,165.45 237.489,165.467 237.672,166.017C237.749,166.247 238.307,166.487 238.914,166.552C243.861,167.079 254,180.589 254,186.655C254,189.06 256.043,191.816 256.555,190.1C256.82,189.209 256.811,160.838 256.545,159.9C256.096,158.318 254,160.886 254,163.017C254,165.767 250.139,166.165 246.4,163.801C246.07,163.592 245.62,163.416 245.4,163.411C245.029,163.401 241.609,161.84 239.138,160.553C238.554,160.249 237.541,160 236.887,160C236.233,160 235.474,159.73 235.2,159.4C234.525,158.586 227.268,158.594 225,159.412M252.339,237.578C251.383,238.886 249.976,240.826 249.213,241.888C246.592,245.538 241.103,249.6 238.791,249.6C238.341,249.6 237.571,249.863 237.081,250.184C235.441,251.258 230.376,251.408 228.477,250.439C227.572,249.978 226.582,249.6 226.277,249.6C225.435,249.6 223.418,248.504 222.603,247.603C222.203,247.161 221.753,246.8 221.602,246.8C221.031,246.8 214,253.074 214,253.584C214,253.975 216.702,255.2 217.565,255.2C217.97,255.2 218.526,255.47 218.8,255.8C219.078,256.135 219.95,256.4 220.773,256.4C221.584,256.4 222.596,256.664 223.024,256.987C224.141,257.832 234.259,257.832 235.376,256.987C235.804,256.664 236.736,256.4 237.448,256.4C238.16,256.4 239.013,256.13 239.343,255.8C239.673,255.47 240.133,255.2 240.365,255.2C240.598,255.2 241.666,254.66 242.738,254C243.811,253.34 244.788,252.8 244.911,252.8C247.106,252.8 254.598,242.608 254.946,239.149C255.409,234.538 254.822,234.184 252.339,237.578M164.139,296.081C163.525,297.04 162.812,299.391 162.806,300.476C162.803,301.068 162.656,301.642 162.479,301.751C162.303,301.86 161.907,302.872 161.6,304C161.293,305.128 160.897,306.14 160.721,306.249C160.544,306.358 160.4,306.876 160.4,307.4C160.4,307.924 160.22,308.464 160,308.6C159.78,308.736 159.6,309.368 159.6,310.005C159.6,310.641 159.398,311.666 159.15,312.281C158.903,312.897 158.555,313.76 158.377,314.2C157.299,316.863 155.6,322.24 155.6,322.986C155.6,323.47 155.491,323.976 155.357,324.11C154.95,324.517 152.8,331.184 152.8,332.039C152.8,332.479 152.553,333.326 152.251,333.92C151.709,334.986 150.067,339.947 148.45,345.4C147.994,346.94 147.145,349.64 146.564,351.4C145.983,353.16 145.336,355.23 145.125,356C144.651,357.735 143.262,361.562 142.768,362.495C142.566,362.877 142.4,363.811 142.4,364.571C142.4,365.331 142.256,366.042 142.079,366.151C141.903,366.26 141.507,367.272 141.2,368.4C140.893,369.528 140.497,370.54 140.321,370.649C140.144,370.758 140,371.276 140,371.8C140,372.324 139.82,372.864 139.6,373C139.38,373.136 139.197,373.642 139.194,374.124C139.188,375.068 138.135,378.337 137.625,378.997C137.454,379.219 137.02,380.281 136.661,381.358C135.819,383.885 133.754,387.097 132.769,387.41C132.346,387.544 132,387.822 132,388.027C132,388.232 131.761,388.4 131.47,388.4C130.624,388.4 129.071,390.286 129.339,390.986C129.551,391.538 130.89,391.6 140.49,391.506L151.4,391.4L151.528,390.5C151.598,390.005 151.508,389.577 151.328,389.549C151.148,389.521 150.598,389.456 150.107,389.404C149.616,389.352 148.986,389.121 148.707,388.89C148.428,388.66 147.668,388.41 147.017,388.335C146.172,388.239 145.45,387.695 144.492,386.436L143.15,384.672L143.31,380.836C143.494,376.446 144.819,370.835 146.458,367.505C146.646,367.123 146.8,366.463 146.8,366.038C146.8,363.936 146.435,364 158.543,364.006C170.817,364.013 170.75,364.001 171.197,366.251C171.367,367.103 172.155,369.6 172.948,371.8C173.742,374 174.393,376.284 174.396,376.876C174.398,377.468 174.561,378.052 174.758,378.174C175.107,378.39 175.404,379.882 175.852,383.667C176.206,386.663 173.678,389.432 170.746,389.259C168.987,389.155 167.696,390.152 168.435,391.042C169.09,391.832 198.475,391.874 199.128,391.087C199.689,390.411 199.327,389.967 197.431,389C195.906,388.222 193.23,385.112 193.21,384.095C193.204,383.817 193.026,383.277 192.814,382.895C192.602,382.513 191.872,380.49 191.192,378.4C190.513,376.31 189.803,374.24 189.615,373.8C189.018,372.406 188.728,371.459 188.205,369.2C187.924,367.99 187.154,365.47 186.493,363.6C185.832,361.73 185.11,359.48 184.888,358.6C184.666,357.72 183.994,355.74 183.394,354.2C182.794,352.66 182.172,350.68 182.011,349.8C181.85,348.92 181.257,346.909 180.694,345.331C180.131,343.754 179.738,342.395 179.82,342.313C179.903,342.231 179.323,340.372 178.532,338.182C177.741,335.992 177.009,333.524 176.905,332.697C176.801,331.871 176.555,331.095 176.358,330.974C176.161,330.852 176,330.324 176,329.8C176,329.276 175.856,328.758 175.679,328.649C175.503,328.54 175.107,327.528 174.8,326.4C174.493,325.272 174.097,324.26 173.921,324.151C173.744,324.042 173.605,323.558 173.611,323.076C173.622,322.237 172.25,317.6 170.099,311.2C169.544,309.55 168.865,307.21 168.589,306C168.314,304.79 167.74,302.99 167.313,302C166.887,301.01 166.305,299.348 166.019,298.308C165.432,296.167 164.665,295.259 164.139,296.081M218.415,297.504C209.436,297.566 202.873,297.767 202.652,297.988C201.844,298.796 203.245,299.6 205.46,299.6C208.077,299.6 210.628,301.753 211.5,304.699C212.141,306.863 212.237,383.406 211.6,383.8C211.38,383.936 211.2,384.487 211.2,385.024C211.2,386.49 208.34,389.184 206.7,389.262C205.985,389.297 204.895,389.348 204.277,389.376C202.972,389.435 202.241,390.326 202.872,391.087C203.211,391.496 209.134,391.6 232.041,391.6L260.785,391.6L260.976,390.7C261.545,388.031 262.297,378.089 262.633,368.8C262.748,365.61 263.013,362.829 263.221,362.62C263.963,361.876 263.674,358.068 262.842,357.622C262.299,357.332 261.966,357.359 261.669,357.717C261.175,358.312 259.587,364.056 259.815,364.424C259.966,364.668 259.289,366.655 257.073,372.477C255.355,376.987 250.172,383.487 248.2,383.604C247.98,383.617 247.08,383.975 246.2,384.4C244.823,385.065 243.687,385.175 238.058,385.186L231.515,385.2L229.958,383.966C228.937,383.158 228.4,382.408 228.4,381.79C228.4,381.271 228.22,380.736 228,380.6C227.738,380.438 227.6,367.404 227.6,342.8C227.6,318.196 227.738,305.162 228,305C228.22,304.864 228.4,304.399 228.4,303.966C228.4,302.06 231.774,299.6 234.389,299.6C236.694,299.6 236.8,299.556 236.8,298.6C236.8,297.809 236.598,297.6 235.833,297.6C235.301,297.6 234.626,297.555 234.333,297.5C234.04,297.444 226.877,297.447 218.415,297.504M159.6,328.902C159.6,329.767 160.77,333.279 162.148,336.549C162.506,337.401 162.8,338.481 162.8,338.95C162.8,339.419 163.44,341.602 164.222,343.801C165.004,346.001 165.706,348.25 165.782,348.8C165.858,349.35 166.388,351.136 166.96,352.77C168.653,357.605 169.362,357.2 159.208,357.2C148.574,357.2 149.143,357.741 151.835,350.2C152.856,347.34 153.834,344.28 154.008,343.4C154.182,342.52 154.987,339.82 155.797,337.4C156.608,334.98 157.451,332.37 157.672,331.6C158.611,328.331 159.6,326.946 159.6,328.902" style="fill:rgb(13,100,193);"/>
        <path id="path1" d="M192.6,128.813C188.727,129.098 180.94,130.28 180.272,130.684C180.091,130.793 178.651,131.204 177.072,131.597C174.039,132.352 173.086,132.685 170.221,133.991C169.243,134.436 168.277,134.8 168.074,134.8C167.871,134.8 166.324,135.523 164.637,136.406C160.624,138.507 159.935,138.905 159.305,139.482C159.015,139.748 157.735,140.521 156.46,141.2C155.185,141.88 153.317,143.103 152.308,143.918C151.299,144.733 149.377,146.272 148.037,147.338C146.696,148.405 145.6,149.44 145.6,149.638C145.6,149.837 145.33,150 145,150C144.67,150 144.4,150.151 144.4,150.335C144.4,150.519 143.725,151.394 142.9,152.279C142.075,153.164 140.497,154.859 139.394,156.044C138.29,157.23 136.952,158.83 136.419,159.6C135.887,160.37 134.979,161.552 134.402,162.227C133.824,162.902 132.575,164.882 131.626,166.627C130.677,168.372 129.686,170.07 129.425,170.4C129.164,170.73 128.622,171.81 128.22,172.8C127.819,173.79 127.076,175.5 126.569,176.6C121.572,187.444 118.856,206.668 120.804,217.4C121.044,218.72 121.412,220.97 121.622,222.4C122.111,225.734 125.169,235.712 126.432,238.095C126.634,238.477 126.8,239.062 126.8,239.395C126.8,239.728 126.98,240 127.2,240C127.42,240 127.6,240.167 127.6,240.372C127.6,240.577 128.14,241.911 128.8,243.337C129.46,244.763 130,246.035 130,246.165C130,246.294 130.28,246.715 130.621,247.1C130.963,247.485 132.079,249.06 133.101,250.6C134.766,253.109 136.259,255.197 138.316,257.898C141.195,261.68 150.557,270.089 155.4,273.244C157.38,274.534 159.285,275.862 159.634,276.195C159.982,276.528 160.404,276.8 160.571,276.8C160.738,276.8 162.926,277.801 165.432,279.024C171.996,282.228 173.424,282.15 176.8,278.405C176.91,278.283 179.656,276.059 182.901,273.462C186.147,270.865 189.027,268.526 189.301,268.265C189.576,268.003 191.51,266.361 193.6,264.616C195.69,262.871 199.449,259.633 201.953,257.421C204.456,255.21 207.021,252.982 207.653,252.471C208.284,251.96 208.8,251.393 208.8,251.211C208.8,250.78 205.171,247.2 204.734,247.2C204.55,247.2 204.4,246.94 204.4,246.623C204.4,246.305 204.085,245.809 203.7,245.519C202.999,244.993 202.427,244.082 200.799,240.9C200.32,239.965 199.765,239.2 199.564,239.2C199.364,239.2 199.2,238.79 199.2,238.289C199.2,237.788 198.902,236.953 198.538,236.433C198.174,235.913 197.723,234.671 197.537,233.674C197.351,232.677 196.951,231.577 196.65,231.23C196.348,230.884 195.972,229.88 195.815,229C195.657,228.12 195.391,227.22 195.222,227C193.758,225.089 192.382,204.217 193.561,201.802C193.777,201.361 194.049,199.83 194.167,198.4C194.486,194.518 194.843,192.689 195.452,191.811C195.753,191.377 196,190.605 196,190.095C196,189.585 196.36,188.462 196.8,187.6C197.24,186.738 197.6,185.763 197.6,185.435C197.6,185.107 198.29,183.524 199.134,181.919C199.978,180.314 200.795,178.49 200.95,177.866C201.105,177.242 201.701,176.298 202.273,175.768C203.373,174.748 204.4,173.036 204.4,172.222C204.4,171.954 204.865,171.486 205.434,171.182C206.003,170.877 206.718,170.145 207.024,169.554C207.66,168.323 210.701,165.6 211.438,165.6C211.71,165.6 212.615,164.88 213.449,164C214.283,163.12 215.304,162.4 215.719,162.4C216.134,162.4 216.925,162.045 217.477,161.611C218.03,161.176 219.093,160.706 219.841,160.566C220.588,160.426 221.2,160.164 221.2,159.984C221.2,158.284 236.545,158.411 238.259,160.126C238.41,160.277 238.923,160.4 239.399,160.4C239.875,160.4 241.15,160.849 242.232,161.398C243.314,161.947 244.352,162.397 244.537,162.398C244.722,162.399 245.331,162.76 245.891,163.2C246.45,163.64 247.29,164 247.758,164C248.225,164 248.832,164.36 249.107,164.8C249.666,165.694 251.281,165.867 251.917,165.1C252.883,163.934 255.2,159.462 255.2,158.762C255.2,157.473 256.293,157.912 256.541,159.3C256.843,160.988 256.846,189.416 256.544,190.201C255.895,191.893 254.135,189.726 253.781,186.8C253.635,185.59 253.109,183.88 252.613,183C252.117,182.12 251.782,181.202 251.869,180.96C251.956,180.718 251.751,180.291 251.413,180.011C251.076,179.731 250.8,179.164 250.8,178.751C250.8,178.338 250.62,178 250.4,178C250.18,178 250,177.762 250,177.472C250,177.182 249.55,176.553 249,176.075C248.45,175.597 248,175.026 248,174.807C248,173.255 241.473,167.523 239.278,167.147C238.465,167.008 236.9,166.688 235.8,166.437C231.428,165.439 230.822,165.433 229.551,166.373C228.893,166.859 227.735,167.358 226.978,167.481C226.077,167.627 225.085,168.25 224.101,169.286C223.276,170.156 221.929,171.303 221.108,171.834C220.288,172.365 219.251,173.475 218.804,174.3C218.357,175.125 217.842,176.07 217.659,176.4C217.338,176.977 216.454,178.923 215.066,182.102C214.706,182.929 214.304,184.639 214.174,185.902C214.044,187.166 213.682,188.723 213.369,189.361C213.056,190 212.8,191.095 212.8,191.795C212.8,192.494 212.665,193.202 212.5,193.367C212.24,193.626 212.066,195.497 212.005,198.68C211.995,199.164 211.811,199.67 211.594,199.804C211.063,200.132 211.071,215.789 211.603,216.705C211.825,217.087 212.258,219.74 212.567,222.6C212.876,225.46 213.338,228.52 213.595,229.4C213.852,230.28 214.211,231.933 214.393,233.074C214.575,234.215 214.999,235.655 215.335,236.274C215.671,236.893 216.453,238.515 217.073,239.878C217.693,241.241 218.326,242.321 218.48,242.278C220.003,241.853 246.913,214.965 259.6,201.191C275.13,184.331 274.617,185.118 273.039,180.57C271.647,176.56 269.748,172.136 268.882,170.885C268.468,170.288 268.015,169.53 267.874,169.2C267.732,168.87 267.164,167.88 266.611,167C266.058,166.12 265.482,165.141 265.331,164.824C264.57,163.228 260.398,157.833 257.733,155C256.078,153.24 254.606,151.669 254.462,151.508C253.334,150.25 247.387,144.98 246.149,144.139C245.298,143.562 244.062,142.687 243.401,142.194C242.741,141.701 241.075,140.702 239.7,139.972C238.325,139.243 237.2,138.501 237.2,138.323C237.2,138.146 236.918,138 236.573,138C236.229,138 235.357,137.55 234.636,137C233.914,136.45 233.056,136 232.729,136C232.401,136 232.005,135.872 231.848,135.715C231.185,135.051 221.202,131.513 218,130.807C216.79,130.54 215.08,130.159 214.2,129.959C208.263,128.612 200.747,128.213 192.6,128.813M165.389,159.482C165.823,159.767 166.56,160 167.027,160C167.494,160 168.202,160.36 168.6,160.8C168.998,161.24 169.57,161.6 169.87,161.6C170.614,161.6 173.186,163.315 174.362,164.595C176.285,166.688 177.574,165.96 178.774,162.103C179.645,159.303 179.931,158.806 180.669,158.803L181.539,158.8L181.469,174.18C181.423,184.385 181.257,189.702 180.976,189.984C180.226,190.735 178.757,187.408 179.045,185.608C179.237,184.41 179.099,183.831 178.397,182.882C177.907,182.219 177.615,181.499 177.748,181.283C177.882,181.067 177.723,180.668 177.396,180.396C177.068,180.124 176.8,179.634 176.8,179.305C176.8,178.977 176.416,177.964 175.948,177.054C175.479,176.145 174.849,174.922 174.548,174.338C174.246,173.754 174,173.029 174,172.727C174,172.425 173.685,171.904 173.3,171.569C172.915,171.234 172.06,170.339 171.4,169.58C169.712,167.64 165.175,164.557 163.558,164.251C160.115,163.599 158.893,163.525 158.629,163.954C158.477,164.199 158.054,164.4 157.69,164.4C156.524,164.4 153.6,165.691 153.6,166.205C153.6,166.479 153.315,166.938 152.967,167.227C152.619,167.516 151.813,168.785 151.176,170.047C150.539,171.309 149.834,172.455 149.609,172.594C149.082,172.92 149.074,176.275 149.6,176.6C149.82,176.736 150,177.362 150,177.991C150,178.62 150.261,179.645 150.58,180.268C150.899,180.89 151.699,182.615 152.359,184.1C153.018,185.585 153.72,186.8 153.918,186.8C154.116,186.8 154.71,187.176 155.239,187.635C155.767,188.094 156.38,188.589 156.6,188.735C156.82,188.881 157.199,189.36 157.441,189.8C157.684,190.24 158.404,190.778 159.041,190.995C159.679,191.212 160.344,191.617 160.52,191.895C160.696,192.173 161.032,192.4 161.267,192.4C161.502,192.4 162.309,192.94 163.061,193.6C163.813,194.26 164.677,194.8 164.981,194.8C165.285,194.8 165.593,194.935 165.667,195.1C165.866,195.548 169.1,198 169.492,198C169.678,198 170.789,198.9 171.961,200C173.132,201.1 174.239,202 174.42,202C174.602,202 175.775,203.215 177.027,204.7C178.28,206.185 179.731,207.667 180.252,207.993C180.777,208.321 181.2,208.973 181.2,209.456C181.2,209.934 181.92,211.709 182.8,213.4C183.68,215.091 184.4,217.03 184.4,217.709C184.4,218.94 184.984,221.178 185.649,222.495C186.106,223.399 186.108,232.914 185.651,232.632C185.312,232.422 184.927,234.37 184.598,237.962C184.509,238.931 184.248,239.912 184.018,240.142C183.788,240.372 183.6,240.87 183.6,241.249C183.6,241.628 183.181,242.447 182.669,243.069C181.62,244.344 180,247.574 180,248.391C180,248.936 177.707,251.2 177.155,251.2C176.989,251.2 176.74,251.56 176.6,252C176.46,252.44 176.173,252.8 175.961,252.8C175.749,252.8 175.042,253.407 174.391,254.149C173.739,254.892 172.666,255.607 172.005,255.739C171.345,255.871 170.05,256.344 169.127,256.79C167.177,257.732 159.44,257.971 157.882,257.137C157.406,256.882 156.487,256.612 155.84,256.537C155.192,256.461 154.378,256.151 154.031,255.846C153.684,255.542 152.657,254.92 151.749,254.464C150.841,254.007 150.004,253.388 149.888,253.086C149.302,251.559 144,250.767 144,252.208C144,252.533 143.841,252.8 143.646,252.8C143.451,252.8 143.001,253.385 142.647,254.1C140.897,257.632 139.388,258.135 139.046,255.3C138.561,251.273 138.97,223.27 139.522,222.72C140.281,221.963 141.451,223.663 141.763,225.975C142.183,229.095 142.375,229.858 143.191,231.656C143.626,232.615 143.987,233.85 143.992,234.4C144.004,235.569 146.306,240.303 147.47,241.553C147.911,242.026 148.526,242.905 148.836,243.507C150.078,245.914 153.305,249.239 155.418,250.287C156.288,250.719 157.882,251.551 158.96,252.136C160.993,253.24 164.88,253.641 165.399,252.801C165.535,252.582 166.671,251.914 167.923,251.318C170.199,250.234 171.959,248.659 171.986,247.681C171.994,247.395 172.462,246.734 173.027,246.21C174.275,245.053 175.497,237.687 174.686,236.205C174.443,235.762 174.292,234.922 174.349,234.338C174.417,233.64 173.997,232.676 173.126,231.528C172.397,230.567 171.352,228.902 170.805,227.828C170.258,226.754 169.499,225.794 169.118,225.695C168.738,225.595 168.318,225.173 168.186,224.757C168.054,224.341 167.676,224 167.346,224C166.789,224 164.32,222.389 163.395,221.423C162.724,220.721 160.457,219.2 160.082,219.2C159.89,219.2 159.264,218.705 158.691,218.1C157.365,216.698 156.935,216.377 155.092,215.405C154.263,214.968 151.833,212.883 149.692,210.772C144.416,205.571 143.504,204.544 143.42,203.713C143.38,203.321 142.954,202.13 142.474,201.067C141.993,200.004 141.596,199.014 141.591,198.867C141.586,198.72 141.23,198.15 140.8,197.6C140.241,196.886 140.015,195.966 140.009,194.38C140.004,193.159 139.828,191.988 139.618,191.778C139.07,191.23 139.02,180.284 139.561,179.273C139.802,178.822 140,177.984 140,177.41C140,176.837 140.356,175.671 140.791,174.818C141.225,173.966 141.775,172.402 142.013,171.343C142.648,168.511 149.712,160.4 151.545,160.4C151.927,160.4 152.411,160.244 152.62,160.054C153.337,159.4 158.367,158.29 159.684,158.495C160.408,158.608 161.36,158.568 161.8,158.407C162.599,158.114 163.9,158.504 165.389,159.482M274.343,192.234C260.22,208.082 256.05,212.456 237.708,230.655L221.929,246.309L222.972,247.055C223.546,247.465 224.479,248.18 225.045,248.645C227.334,250.522 237.545,250.906 238.627,249.156C238.748,248.96 239.377,248.8 240.024,248.8C240.671,248.8 241.2,248.664 241.2,248.498C241.2,248.331 241.695,247.976 242.3,247.708C243.942,246.981 248.921,242.057 250.094,240C251.171,238.111 253.782,235.2 254.4,235.2C255.568,235.2 255.648,239.877 254.523,242.402C253.072,245.663 247.098,252.186 244.4,253.456C243.63,253.819 242.856,254.359 242.68,254.658C242.504,254.956 242.045,255.2 241.66,255.2C241.275,255.2 240.789,255.348 240.58,255.529C240.371,255.71 239.12,256.198 237.8,256.613C236.48,257.028 235.22,257.484 235,257.626C234.369,258.034 221.848,257.361 220.93,256.87C220.476,256.627 220.009,256.524 219.892,256.642C219.774,256.759 219.345,256.692 218.939,256.493C218.533,256.293 217.164,255.628 215.898,255.015L213.597,253.9L212.429,254.85C211.787,255.373 208.158,258.5 204.364,261.8C194.48,270.397 191.718,272.724 185.2,277.95C177.943,283.768 177.824,283.952 180.913,284.57C181.621,284.712 183.64,285.112 185.4,285.459C187.474,285.867 191.726,286.154 197.479,286.272C206.651,286.461 206.181,286.502 217.51,284.521C218.23,284.395 218.916,284.136 219.033,283.946C219.151,283.756 219.557,283.6 219.935,283.6C224.134,283.6 243.221,274.173 246.562,270.449C246.981,269.982 247.491,269.6 247.694,269.6C248.265,269.6 256.775,261.466 258.8,258.984C259.79,257.771 261.095,256.174 261.7,255.436C262.305,254.698 262.8,253.908 262.8,253.681C262.8,253.453 262.958,253.207 263.15,253.133C263.343,253.06 264.336,251.704 265.357,250.119C266.378,248.535 267.391,247.129 267.607,246.996C267.823,246.862 268,246.324 268,245.8C268,245.276 268.184,244.733 268.41,244.594C270.09,243.556 274.98,230.619 275.477,225.9C275.587,224.855 275.84,224 276.039,224C276.237,224 276.404,223.505 276.408,222.9C276.412,222.295 276.676,220.36 276.994,218.6C277.657,214.929 277.75,204.054 277.163,198.8C276.955,196.93 276.68,194.5 276.553,193.4C276.237,190.662 275.901,190.485 274.343,192.234" style="fill:rgb(249,248,14);"/>
        <path id="path3" d="M317.4,62.667C314.846,62.981 307.408,64.821 305.4,65.635C304.96,65.814 303.717,66.246 302.638,66.596C296.063,68.729 283.628,74.634 274,80.196C267.341,84.043 264.494,85.788 257.533,90.288L251.667,94.081L251.784,96.2C251.974,99.615 252.325,99.725 255.6,97.39C259.112,94.886 271.84,87.015 276.6,84.404C277.92,83.679 280.08,82.477 281.4,81.731C285.884,79.198 296.927,73.946 301,72.409C301.44,72.243 302.25,71.921 302.8,71.694C304.114,71.151 305.6,70.661 309,69.651C330.191,63.356 340.24,70.623 335.203,88.6C334.371,91.568 331.79,99.496 331.362,100.4C331.101,100.95 330.574,102.12 330.191,103C328.234,107.501 324.196,115.511 321.846,119.552C320.391,122.055 319.2,124.172 319.2,124.256C319.2,124.615 307.317,142.775 306.805,143.2C306.672,143.31 305.319,145.2 303.798,147.4C302.277,149.6 299.799,153.02 298.292,155C296.784,156.98 295.156,159.127 294.675,159.772C291.732,163.712 281.393,176.409 278.224,179.974C276.159,182.298 274.057,184.74 273.553,185.4C272.492,186.789 265.31,195.11 264.403,196C264.067,196.33 261.904,198.659 259.596,201.175C250.041,211.594 235.14,226.75 225.8,235.55C223.38,237.83 219.78,241.249 217.799,243.148C215.819,245.047 213.299,247.389 212.199,248.353C211.1,249.318 208.76,251.406 207,252.993C203.481,256.167 195.953,262.68 192.2,265.797C190.88,266.894 189.576,268.005 189.301,268.266C189.027,268.527 186.147,270.865 182.901,273.462C179.656,276.059 176.91,278.283 176.8,278.405C176.209,279.061 172.871,281.6 172.6,281.6C172.273,281.6 168.913,284.181 168.2,284.98C164.891,288.688 135.942,308.282 121.7,316.454C120.985,316.864 119.725,317.587 118.9,318.061C116.813,319.258 103.345,326 103.04,326C102.903,326 101.938,326.378 100.896,326.84C83.4,334.591 69.23,335.439 64.813,329C58.651,320.015 65.082,299.404 82.973,270.8C90.014,259.544 101.106,244.218 111.761,231.024L117.233,224.248L116.965,221.424C116.64,218.007 116.549,217.818 115.658,218.704C112.999,221.347 102.51,234.561 93.991,246C86.129,256.558 76.545,271.418 70.515,282.4C46.567,326.018 56.593,347.3 95,334.37C97.64,333.482 100.16,332.592 100.6,332.393C101.04,332.194 103.264,331.206 105.543,330.198C113.256,326.783 123.065,321.572 130.807,316.776C132.673,315.62 134.715,314.41 135.343,314.086C136.906,313.282 152.643,302.704 156.634,299.774C158.412,298.468 161.63,296.14 163.783,294.6C165.936,293.06 167.906,291.62 168.159,291.4C169.299,290.41 172.029,288.375 174.6,286.598C176.14,285.533 177.859,284.198 178.42,283.631C178.982,283.064 182.042,280.507 185.22,277.95C211.76,256.597 243.782,226.193 267.546,199.785C270.706,196.273 274.308,192.32 275.549,191C276.791,189.68 278.346,187.88 279.004,187C279.662,186.12 281.701,183.6 283.535,181.4C285.369,179.2 287.169,177.04 287.535,176.6C287.901,176.16 288.921,174.9 289.801,173.8C290.68,172.7 291.507,171.71 291.638,171.6C292.129,171.187 301.877,158.392 306.875,151.6C310.932,146.087 319.839,132.657 322.792,127.6C324.398,124.85 326.207,121.775 326.811,120.768C327.918,118.922 334.586,105.459 335.315,103.6C337.717,97.473 338.776,94.343 339.548,91.1C339.797,90.055 340.204,88.388 340.453,87.396C341.183,84.492 341.065,76.193 340.258,73.546C337.653,65.01 329.583,61.17 317.4,62.667M232.751,107.536C230.853,109.001 227.611,111.484 225.545,113.053C223.479,114.622 220.981,116.568 219.994,117.378C219.007,118.187 217.924,119.063 217.586,119.325C215.714,120.775 212.135,123.874 211.731,124.395C211.303,124.948 214.074,125.837 216.66,125.975C216.913,125.989 218.533,124.862 220.26,123.472C223.93,120.517 227.674,117.619 233.862,112.946C238.924,109.123 238.872,109.198 238.293,106.67C237.712,104.13 237.019,104.239 232.751,107.536" style="fill:rgb(237,18,116);"/>
    </g>
</svg>
