<?xml version="1.0" encoding="UTF-8" standalone="no"?>
<svg
   width="9884919"
   height="5440152"
   viewBox="0 0 9884919 5440152"
   version="1.1"
   xml:space="preserve"
   style="clip-rule:evenodd;fill-rule:evenodd;stroke-linejoin:round;stroke-miterlimit:2"
   id="svg14"
   sodipodi:docname="valsangoneiimmm.svg"
   xmlns:inkscape="http://www.inkscape.org/namespaces/inkscape"
   xmlns:sodipodi="http://sodipodi.sourceforge.net/DTD/sodipodi-0.dtd"
   xmlns="http://www.w3.org/2000/svg"
   xmlns:svg="http://www.w3.org/2000/svg"><defs
   id="defs14" /><sodipodi:namedview
   id="namedview14"
   pagecolor="#ffffff"
   bordercolor="#000000"
   borderopacity="0.25"
   inkscape:showpageshadow="2"
   inkscape:pageopacity="0.0"
   inkscape:pagecheckerboard="0"
   inkscape:deskcolor="#d1d1d1"><inkscape:page
     x="0"
     y="0"
     width="9884919"
     height="5440152"
     id="page2"
     margin="0"
     bleed="0" /></sodipodi:namedview>
    
    <g
   transform="translate(-20778757,-3148998.7)"
   id="g14">
        <g
   id="g13">
            <g
   transform="translate(925.512,2782.917)"
   id="g11">
                
            <g
   style="clip-rule:evenodd;fill-rule:evenodd;stroke-linejoin:round;stroke-miterlimit:2"
   id="g17"
   transform="translate(-1375.5699,-3088.4663)"><g
     id="Sfondo"
     transform="matrix(4.848633,0,0,4.848633,-1462.1061,-656.78525)">
        
        <path
   d="m 800.97991,408.53691 c -18.657,-0.369 -23.197,1.3 -25.515,-1.915 -2.751,-3.816 -2.483,-3.986 -5.267,-7.773 -5.011,-6.815 -4.793,-6.96 -6.653,-9.508 -0.031,-0.043 -0.821,-0.989 -0.892,-1.075 -0.924,-1.106 -0.945,-1.069 -1.858,-2.169 -0.127,-0.153 -1.74,-2.098 1.171,-2.201 3.359,-0.119 3.357,0.196 42.015,-0.014 18.787,-0.102 19.58,0.718 21.024,3.104 2.169,3.584 2.783,6.412 6.985,6.666 6.977,0.421 6.772,-13.261 2.049,-12.307 -1.224,0.247 -3.352,2.128 -4.423,1.087 -1.261,-1.226 0.146,-4.541 1.721,-6.049 0.959,-0.917 1.623,-0.938 3.369,-3.555 1.816,-2.723 1.925,-3.191 6.274,-3.187 8.194,0.008 8.253,1.087 12.006,0.382 2.915,-0.547 4.656,-0.915 3.761,1.916 -0.461,1.458 -2.622,4.05 -0.981,15.096 0.387,2.6 0.808,6.366 5.217,6.579 5.036,0.243 6.529,-8.311 11.044,-9.444 0.841,-0.211 0.846,-0.45 38.955,-0.288 6.07,0.026 18.754,0.197 19.976,0.282 0.186,0.013 1.985,0.138 1.614,1.686 -0.045,0.187 -7.301,9.866 -8.982,11.814 -0.483,0.559 -0.419,0.597 -5.739,7.237 -2.017,2.517 -2.011,3.521 -4.904,3.848 -1.588,0.18 -8.142,0.922 -19.978,0.546 -2.997,-0.096 -2.974,-0.265 -5.985,-0.182 -0.371,0.01 -24.311,-0.582 -26.049,-0.785 -3.982,-0.466 -7.56,-4.371 -8.994,-2.349 -0.276,0.388 0.333,5.064 2.314,6.692 2.288,1.88 17.844,10.806 18.264,11.644 0.065,0.131 0.046,1.202 -0.018,1.302 -0.825,1.293 -5.366,-0.291 -5.901,2.289 -0.37,1.785 1.301,4.813 -2.565,5.421 -0.521,0.082 -4.444,0.055 -4.157,2.69 0.225,2.059 4.692,4.304 2.466,6.345 -2.453,2.248 -6.595,-0.501 -8.311,0.721 -1.866,1.327 -3.704,7.052 -8.09,6.075 -2.44,-0.544 -4.381,-3.015 -4.666,-3.378 -2.194,-2.793 -2.677,-3.512 -6.264,-2.652 -0.565,0.135 -7.34,1.385 -2.735,-4.915 3.42,-4.678 -2.332,-4.841 -2.358,-4.846 -5.545,-1.049 -1.467,-6.505 -4.974,-7.228 -0.773,-0.159 -3.447,0.259 -3.891,-0.215 -0.902,-0.963 0.598,-2.003 0.745,-2.105 4.216,-2.922 17.049,-10.584 18.549,-12.571 0.696,-0.923 1.649,-4.525 1.407,-5.153 -0.013,-0.033 -0.688,-1.006 -1.669,-0.68 -1.2,0.398 -4.286,3.239 -12.106,3.214 -24.844,-0.08 -24.841,-0.089 -27.001,-0.092 z"
   style="fill:#ffffff"
   id="path2" />
        <path
   id="path3"
   style="fill:#ffffff"
   d="m 989.25423,459.52517 c -5.10746,0.0111 -9.7388,1.19131 -13.14642,2.77381 -22.662,10.524 -24.2089,36.93575 -11.3849,50.93575 13.186,14.394 33.5009,12.96712 44.41289,3.96012 11.173,-9.222 12.2412,-18.01696 12.4302,-25.19396 -0.145,-3.072 0.112,-10.93707 -6.263,-19.23907 -7.7007,-10.02625 -17.53633,-13.25513 -26.04877,-13.23665 z m -0.39637,8.75367 c 6.81287,-0.0727 13.40564,2.95906 17.75714,8.03706 8.053,9.398 7.4311,24.68719 -2.2369,33.14119 -0.373,0.326 -6.8242,6.9758 -18.3992,5.5718 -1.073,-0.131 -6.80787,-0.82594 -12.20987,-5.79094 -6.623,-6.088 -6.92529,-11.91803 -7.35629,-14.29003 -0.038,-0.719 -0.30784,-5.83306 0.42216,-8.98006 1.021,-4.402 2.58721,-6.59889 2.94421,-7.09889 5.233,-7.34 12.26587,-10.51738 19.07875,-10.59013 z" />
        
        <path
   d="m 1083.9819,460.64491 c 2.729,0.114 2.934,-0.347 3.777,0.565 0.56,0.606 0.491,0.739 0.491,29.792 0,31.483 -0.016,31.48 0.106,33.096 0.05,0.661 0.314,0.793 -0.164,1.07 -0.349,0.202 -0.696,0.595 -1.092,0.521 -0.026,-0.005 -4.534,-4.889 -6.19,-6.618 -32.416,-33.837 -32.45,-33.788 -35.183,-36.809 -1.034,-1.142 -1.407,-1.523 -1.705,-1.554 -1.093,-0.11 -1.216,0.13 -1.249,1.241 -0.04,1.364 0.154,1.359 0.154,17.053 0,22.309 0.031,22.337 -0.2,22.895 -0.369,0.894 -1.589,1.03 -1.752,1.048 -0.199,0.022 -5.429,0.061 -5.969,-0.052 -1.751,-0.367 -1.463,-1.102 -1.463,-12.891 0,-15.333 0,-30.667 0,-46 -10e-4,-2.29 -0.294,-5.597 -0.156,-5.834 0.052,-0.087 1.33,-0.314 1.625,-0.23 0.118,0.034 2.489,2.858 6.286,6.753 7.06,7.243 28.348,29.613 30.806,32.196 2.693,2.83 2.685,2.829 2.92,3.074 2.262,2.354 2.038,2.883 2.964,2.902 1.312,0.027 0.782,-1.928 0.767,-5.861 -0.01,-2.721 -0.115,-31.504 0,-34.012 0.138,-2.922 2.252,-2.337 5.223,-2.345 z"
   id="path5"
   style="fill:#ffffff" />
        <path
   d="m 829.39891,518.00191 c -0.003,0.667 0.254,3.986 -0.698,4.619 -0.873,0.58 -7.068,0.367 -7.624,0.144 -1.29,-0.515 -1.081,-0.982 -1.081,-14.763 0,-46.206 0.003,-46.205 -0.028,-47 -0.104,-2.562 -0.293,-2.617 0.042,-2.981 0.886,-0.963 2.092,0.528 2.208,0.671 1.595,1.97 39.044,40.878 40.525,42.595 0.104,0.12 1.249,1.448 1.346,1.461 0.332,0.044 1.435,-0.696 1.46,-0.846 0.076,-0.466 -0.245,-0.451 -0.247,-5.9 -10e-4,-2.639 -0.014,-32.484 0.003,-32.988 0.067,-2.066 1.006,-2.342 2.664,-2.367 4.503,-0.068 6.052,-0.134 6.491,1.138 0.366,1.063 0.179,1.107 0.211,57.217 0.002,2.51 0.12,2.484 0.148,4.977 0.017,1.502 -0.513,1.698 -1.868,1.072 -0.125,-0.058 -0.922,-1.278 -6.272,-6.751 -5.213,-5.333 -30.647,-31.905 -33.307,-34.684 -2.657,-2.775 -2.31,-3.15 -2.639,-3.196 -0.257,-0.036 -1.384,0.522 -1.446,0.681 -0.23,0.589 0.112,0.614 0.112,7.901 z"
   style="fill:#ffffff"
   id="path6" />
        <path
   d="m 931.98191,499.42091 c -0.561,0 -6.936,0 -7.012,-10e-4 -1.753,-0.019 -2.142,0.177 -2.696,-1.473 -0.063,-0.189 -0.055,-4.605 -0.048,-4.935 0.025,-1.156 -0.143,-1.275 0.728,-2.048 0.5,-0.443 0.604,-0.378 18.028,-0.378 4.718,0 7.037,-0.588 7.017,2.416 -0.097,14.197 -6.292,20.294 -6.955,21.054 -0.926,1.062 -6.297,7.218 -14.994,9.251 -19.879,4.647 -37.652,-10.915 -38.671,-28.333 -0.535,-9.152 1.331,-15.109 4.971,-20.74 10.124,-15.662 32.094,-19.41 45.893,-8.57 6.568,5.159 7.074,6.317 4.868,8.468 -2.818,2.747 -2.791,2.761 -3.07,2.944 -2.958,1.943 -2.492,-1.024 -8.159,-4.923 -15.647,-10.766 -39.524,2.333 -34.536,25.766 2.695,12.66 21.318,24.805 35.318,11.746 3.222,-3.005 4.345,-6.923 4.541,-7.604 0.064,-0.226 0.669,-2.332 -1.267,-2.642 0,0 -3.64,0.002 -3.956,0.002 z"
   style="fill:#ffffff"
   id="path7" />
        <path
   id="path8"
   style="fill:#ffffff"
   d="m 637.53461,458.17653 c -0.40786,-0.006 -1.11489,0.0633 -1.20564,0.14058 -0.117,0.1 -1.13399,2.51978 -1.22699,2.74078 -1.46,3.476 -21.87319,46.89484 -25.42719,54.80484 -2.544,5.664 -3.3368,5.86099 -2.3718,6.77099 0.389,0.367 0.46494,0.44011 6.67794,0.32911 3.822,-0.069 3.1939,-2.32393 7.5859,-11.16093 0.802,-1.613 1.32809,-3.71185 3.38409,-4.03585 0.579,-0.092 22.92111,-0.0402 23.04411,-0.0322 2.565,0.168 2.42687,0.88897 5.61087,8.42297 2.709,6.411 3.00584,6.74501 5.37684,6.80201 6.258,0.149 6.35521,0.0683 6.77221,-0.27875 1.062,-0.883 -0.5262,-3.13023 -2.9422,-8.60423 -4.987,-11.298 -17.54984,-39.13496 -17.57784,-39.19396 -0.377,-0.854 -4.319,-9.78476 -4.742,-10.65176 -2.673,-5.475 -2.23298,-5.74733 -2.68398,-6.01933 -0.0355,-0.0215 -0.13837,-0.0321 -0.27432,-0.0342 z m -0.027,21.03967 c 0.14081,-3.3e-4 0.23686,0.002 0.24411,0.007 0.006,0.004 0.003,-2.4e-4 0.57804,1.59476 1.023,2.836 3.22103,7.35312 3.57503,8.21712 3.095,7.577 3.41408,7.43488 3.58308,8.12488 0.035,0.142 0.29289,1.19896 -0.55911,1.73696 -0.236,0.149 -3.63083,0.13594 -3.94683,0.13494 -11.795,-0.043 -11.98185,0.33616 -12.66385,-0.37784 -0.497,-0.521 -0.72817,-0.81401 3.00383,-8.48701 1.65,-3.446 1.537,-3.47913 3.115,-6.96113 0.143,-0.316 1.7868,-3.94266 1.7998,-3.95166 0.0248,-0.0158 0.84846,-0.0369 1.2709,-0.0379 z" />
        <path
   id="path9"
   style="fill:#ffffff"
   d="m 782.37166,457.93483 c -0.1118,0.0167 -0.22911,0.0601 -0.35086,0.13696 -0.365,0.23 -1.31607,2.53112 -1.41107,2.76012 -0.819,1.983 -10.36686,22.18397 -16.75086,36.10997 -6.35,13.85 -6.52486,13.76692 -7.03686,14.98892 -1.968,4.695 -4.38291,9.19009 -4.38791,9.21209 -0.03,0.142 -0.25526,1.21193 0.62074,1.70393 0.263,0.148 2.69289,0.12324 2.92689,0.12124 4.065,-0.042 5.18722,0.42284 6.48822,-1.68016 0.301,-0.488 0.91403,-1.47902 3.11903,-6.46002 2.657,-6.001 2.46295,-7.08496 6.39195,-7.10896 1.763,-0.01 21.06086,-0.12315 22.03786,0.0648 2.396,0.463 3.33417,4.81119 6.13817,11.14119 0.69,1.558 1.24188,3.19577 2.89788,3.73777 0.95,0.312 6.35899,0.20113 6.91199,0.19013 0.147,-0.003 1.35297,-0.028 1.59597,-0.914 0.122,-0.446 -0.8847,-2.53481 -0.9857,-2.74481 -2.63,-5.454 -2.35305,-5.5671 -4.97805,-11.0131 -0.087,-0.185 -0.7011,-1.28201 -1.5001,-3.23101 -2.326,-5.676 -3.85399,-8.30997 -4.94099,-11.02397 -1.351,-3.371 -3.71818,-8.17305 -4.05518,-8.97805 -3.04,-7.262 -4.14302,-9.03896 -4.94502,-11.02396 -1.852,-4.576 -2.10303,-4.45212 -4.03303,-8.98812 -2.266,-5.326 -2.18793,-5.3408 -2.38993,-5.7998 -0.0569,-0.1295 -0.58055,-1.31814 -1.36314,-1.20121 z m 0.25579,21.09446 c 0.13817,0.002 0.24652,0.0188 0.29527,0.0548 0.731,0.538 0.077,0.96387 4.28801,9.80987 0.288,0.652 3.22916,7.31983 3.53716,8.17683 0.903,2.519 -2.35196,1.96393 -3.76596,1.96093 -12.68,-0.025 -13.21922,0.27116 -13.43122,-0.86284 -0.108,-0.577 0.0933,-1.63208 4.22035,-10.26908 3.713,-7.768 3.17067,-8.00974 3.63867,-8.59174 0.123,-0.153 0.80321,-0.28382 1.21772,-0.27876 z" />
        <path
   d="m 1119.9819,484.46591 c 8.479,0.292 14.783,-0.28 16.105,0.388 1.094,0.553 0.76,6.881 0.388,7.431 -0.847,1.251 -1.357,1.007 -7.493,1.007 -15.165,0 -15.358,-0.119 -16.064,0.664 -0.346,0.383 -0.347,3.721 -0.347,4.046 -10e-4,14.97 -0.104,15.161 0.618,15.755 0.674,0.554 0.796,0.422 19.793,0.434 3.296,0.002 4.604,-0.473 4.526,2.815 -0.096,4.067 -0.069,5.132 -0.78,5.602 -0.602,0.398 -0.674,0.361 -28.746,0.359 -3.428,0 -4.735,0.471 -4.748,-2.967 -0.017,-4.559 -0.193,-50.674 0,-56.988 0.083,-2.689 1.043,-2.366 3.745,-2.367 25.79,-0.002 25.778,-0.052 28.019,0.004 2.686,0.066 2.588,1.196 2.445,6.375 -0.042,1.549 0.15,1.92 -1.351,2.342 -1.246,0.351 -21.317,-0.016 -22.247,0.228 -1.608,0.423 -1.277,2.473 -1.277,7.408 0,5.81 -0.543,7.491 2.421,7.532 2.5,0.035 2.486,-0.068 4.99,-0.068 z"
   id="path10"
   style="fill:#ffffff" />
        <path
   d="m 711.41491,478.91991 c -0.298,-2.916 -0.701,-5.41 1.423,-9.991 4.059,-8.758 19.86,-13.871 29.523,-4.319 2.723,2.692 4.245,4.774 3.212,5.972 -0.09,0.104 -5.048,3.017 -5.65,3.175 -2.029,0.535 -2.836,-3.7 -6.893,-4.911 -6.628,-1.979 -12.427,2.457 -12.357,7.16 0.12,8.15 14.979,8.051 23.014,16.278 6.187,6.334 4.457,16.112 3.081,19.637 -6.01,15.393 -30.207,16.956 -36.832,0.099 -2.266,-5.768 -0.904,-6.39 1.09,-6.821 3.246,-0.702 6.227,-1.781 6.927,-0.182 0.265,0.605 0.84,10.589 11.036,10.151 10.461,-0.449 13.346,-14.33 4.038,-19.244 -4.434,-2.341 -7.447,-3.497 -8.115,-3.753 -12.255,-4.7 -13.201,-12.231 -13.497,-13.251 z"
   style="fill:#ffffff"
   id="path11" />
        <path
   d="m 583.69491,502.61391 c 1.014,-2.078 0.84,-2.136 10.928,-26.759 0.455,-1.111 1.607,-4.467 4.355,-10.855 1.456,-3.384 1.502,-4.27 3.989,-4.345 6.535,-0.197 6.644,-0.078 7.025,0.336 0.551,0.6 0.086,1.872 0.03,2.024 -0.449,1.225 -3.382,7.745 -6.214,14.913 -0.328,0.829 -0.432,0.768 -4.326,10.272 -1.09,2.659 -5.669,13.331 -9.145,21.944 -0.365,0.904 -3.472,7.966 -6.175,14.988 -0.311,0.807 -0.31,0.964 -1.18,0.97 -0.885,0.006 -0.858,-0.194 -1.132,-1.023 -1.572,-4.771 -19.215,-47.139 -25.099,-62.002 -0.661,-1.67 -0.64,-2.313 1.167,-2.445 1.842,-0.134 5.596,0.006 6.082,0.024 3.056,0.113 2.52,1.928 5.75,9.448 0.51,1.187 0.418,1.198 6.054,14.969 0.383,0.935 0.309,0.944 4.648,11.745 1.003,2.499 0.977,2.486 1.748,5.047 0.072,0.24 0.048,0.57 0.258,0.708 0.139,0.092 0.261,-0.263 0.427,-0.257 0.457,0.015 0.365,0.283 0.81,0.298 z"
   style="fill:#ffffff"
   id="path12" />
        <path
   d="m 702.35591,519.00191 c -0.216,2.792 0.153,3.011 -0.684,3.597 -0.606,0.424 -0.686,0.368 -21.69,0.368 -3.753,0 -5.32,0.79 -5.342,-2.96 -0.054,-9.419 -0.005,-50.605 0,-55.005 0,-0.246 0.003,-2.736 0.099,-3.078 0.341,-1.212 2.016,-1.268 2.22,-1.274 6.018,-0.199 6.346,0.218 6.676,0.641 0.482,0.615 0.425,0.717 0.425,36.711 0,14.969 -0.175,15.337 0.951,15.94 1.244,0.666 15.392,-0.204 16.623,0.555 0.991,0.611 0.72,4.213 0.722,4.505 z"
   id="path13"
   style="fill:#ffffff" />
        
        
    </g><g
     transform="translate(644.39338,-556.92028)"
     id="g16"
     style="fill:#ffffff">
        <g
   transform="matrix(400,0,0,400,3063.4026,2782.9171)"
   id="g15"
   style="fill:#ffffff">
        </g>
        <text
   x="835.66211"
   y="2782.917"
   style="font-weight:500;font-size:400px;font-family:Futura-Medium, Futura, sans-serif;fill:#ffffff"
   id="text15">Immobiliare</text>
    </g></g></g>
            
        </g>
    </g>
</svg>
