<?xml version="1.0" encoding="UTF-8" standalone="no"?>
<!-- Created with Inkscape (http://www.inkscape.org/) -->

<svg
   version="1.1"
   id="svg1"
   width="856.99451"
   height="179.58929"
   viewBox="0 0 856.99451 179.58929"
   sodipodi:docname="LOGO IN NERO CS24 GIAVENO VETTORIALE.svg"
   xmlns:inkscape="http://www.inkscape.org/namespaces/inkscape"
   xmlns:sodipodi="http://sodipodi.sourceforge.net/DTD/sodipodi-0.dtd"
   xmlns="http://www.w3.org/2000/svg"
   xmlns:svg="http://www.w3.org/2000/svg">
  <defs
     id="defs1" />
  <sodipodi:namedview
     id="namedview1"
     pagecolor="#ffffff"
     bordercolor="#000000"
     borderopacity="0.25"
     inkscape:showpageshadow="2"
     inkscape:pageopacity="0.0"
     inkscape:pagecheckerboard="0"
     inkscape:deskcolor="#d1d1d1">
    <inkscape:page
       x="0"
       y="0"
       width="856.99451"
       height="179.58929"
       id="page2"
       margin="0"
       bleed="0" />
  </sodipodi:namedview>
  <g
     inkscape:groupmode="layer"
     inkscape:label="Image"
     id="g1"
     transform="translate(-48.249021,36.51335)">
    <g
       id="g2"
       transform="translate(15.847006,-108.81807)"
       style="fill:#2563eb;fill-opacity:1">
      <path
         style="fill:#2563eb;fill-opacity:1"
         d="m 413.41808,251.34078 c -18.36162,-1.93223 -38.43461,-12.62393 -51.84393,-27.61419 -3.17611,-3.55058 -4.05577,-4.72376 -8.23944,-10.98877 -16.25931,-24.34816 -17.5316,-58.64492 -3.16969,-85.4445 1.10542,-2.06273 2.00985,-3.92633 2.00985,-4.14133 0,-0.215 -2.85278,-0.39091 -6.33951,-0.39091 h -6.33952 l 1.13755,-4.13461 c 3.13833,-11.4068 -1.81555,-15.01019 -6.24251,-4.54072 l -1.36872,3.23691 -0.23645,24.35467 -0.23645,24.35468 h -12.29557 -12.29556 l -0.12138,-33.69458 -0.12138,-33.694576 h 3.48903 c 1.91897,0 6.54896,-0.349646 10.28887,-0.776991 3.73991,-0.427346 7.75747,-0.799759 8.92791,-0.827586 l 2.12808,-0.0506 0.23645,4.729063 c 0.21801,4.36014 0.28828,4.63781 0.90081,3.55929 7.83718,-13.799347 24.80583,-10.961719 24.8563,4.15666 l 0.0163,4.87852 1.89163,-2.26699 c 4.92669,-5.9043 13.96612,-13.888414 20.20369,-17.84497 l 2.70616,-1.716545 -1.93554,-5.454098 c -2.35129,-6.625665 -2.58281,-6.377704 4.20655,-4.50532 3.05693,0.843045 7.47332,2.044988 9.81421,2.670985 2.34089,0.625997 6.59704,1.785913 9.45813,2.577591 2.86108,0.791678 7.64926,2.087301 10.64039,2.879161 9.68107,2.562928 9.59279,1.935192 1.65517,11.770116 -14.71063,18.22688 -17.57338,21.78327 -18.84369,23.40955 -1.7741,2.27124 -2.62752,1.56573 -4.34527,-3.59221 -1.57356,-4.72499 -1.32959,-4.67019 -5.25936,-1.18121 -51.74829,45.94385 -5.46777,130.6355 61.90025,113.27518 54.86284,-14.1378 69.34777,-89.93814 23.99539,-125.56899 -2.33586,-1.83516 -3.6178,-3.84113 -1.72991,-2.70694 2.13475,1.28249 5.80119,3.66681 5.99688,3.89983 0.13005,0.15486 1.19409,0.89961 2.36453,1.65502 7.16358,4.62336 17.17418,18.09872 21.28149,28.64723 0.55702,1.43054 1.15714,2.73075 1.33361,2.88934 0.29342,0.2637 6.86455,-0.94165 9.44876,-1.73322 1.07217,-0.3284 1.08281,-0.29523 0.70936,2.2109 -2.0077,13.47343 0.91724,20.65091 9.54022,23.41063 20.56088,6.58037 33.5948,-9.21966 17.44652,-21.1491 -2.26838,-1.67574 -10.01873,-5.62855 -11.03603,-5.62855 -0.2421,0 -2.33978,-0.82391 -4.66154,-1.83091 -40.72389,-17.66291 -23.09367,-66.453644 20.48934,-56.703173 12.10018,2.707076 19.62561,12.059835 19.62561,24.391113 v 1.7787 l -5.92224,1.11704 c -6.8147,1.28538 -6.66547,1.33287 -5.89565,-1.87607 1.08119,-4.50693 -0.44658,-10.326013 -3.59464,-13.691549 -6.7018,-7.164763 -25.68432,-7.098874 -29.56683,0.102628 -4.07926,7.566461 1.30462,14.201441 16.0219,19.745071 23.75558,8.94811 33.34787,19.28244 32.61268,35.13557 -1.10806,23.89333 -35.7972,36.88844 -57.88568,21.68491 l -2.75476,-1.8961 -0.55657,6.2972 c -1.63087,18.45232 -7.27927,33.13484 -17.93196,46.61257 -6.40102,8.09853 -15.93774,15.95285 -25.72822,21.18942 -14.55705,7.78605 -32.44158,10.9614 -50.83561,9.02575 z m 136.5369,-15.55251 c -12.5446,-2.67031 -16.90552,-22.17462 -7.10327,-31.7695 8.38567,-8.20827 28.29521,-5.59025 21.82214,2.86952 -0.0784,0.10248 -1.3273,-0.18631 -2.7753,-0.64176 -9.35162,-2.94145 -16.48676,2.04285 -16.47452,11.5084 0.0118,9.13049 4.46363,13.39447 12.58336,12.05236 l 1.77339,-0.29312 v -3.95783 -3.95783 h -3.31034 -3.31034 v -3.08653 -3.08654 l 6.97536,0.13087 6.97537,0.13087 v 9.21456 9.21456 l -3.07389,0.83499 c -3.64959,0.99138 -11.23783,1.4424 -14.08196,0.83698 z m 191.54941,0.003 c -10.79474,-2.29608 -16.23687,-15.95141 -11.03965,-27.70057 5.60711,-12.67581 27.15654,-11.56433 31.27484,1.61309 5.00627,16.0187 -5.27242,29.27011 -20.23519,26.08748 z m 7.18031,-6.20428 c 7.26414,-2.01676 9.00508,-18.09761 2.46436,-22.76305 -7.00259,-4.9949 -14.26483,0.48064 -14.26483,10.75532 0,9.8392 4.20378,14.11681 11.80047,12.00773 z M 575.8596,217.81571 v -17.97044 h 3.78325 3.78326 v 17.97044 17.97044 h -3.78326 -3.78325 z m 17.99789,2.12907 c 3.07033,-8.73205 5.93336,-16.93304 6.36229,-18.22443 l 0.77987,-2.34799 h 4.58124 4.58125 l 6.43029,18.22438 6.4303,18.22437 -4.05422,-0.1357 -4.05422,-0.13571 -1.2234,-4.01971 -1.22339,-4.0197 h -6.82147 -6.82148 l -1.23692,4.0197 -1.23692,4.01971 -4.03782,0.13576 -4.03782,0.13577 z m 16.44073,0.0812 c -3.52634,-14.46493 -4.5589,-15.58168 -6.9588,-7.52617 -1.14225,3.8341 -2.17586,7.23711 -2.2969,7.56223 -0.16701,0.44861 0.9407,0.59114 4.59427,0.59114 3.7607,0 4.78087,-0.13727 4.66143,-0.6272 z m 19.29274,-1.85556 c -3.28909,-9.68867 -5.97738,-17.78432 -5.97398,-17.99034 0.003,-0.20601 1.65061,-0.31242 3.66048,-0.23645 l 3.65432,0.13812 3.65642,11.58621 c 2.01103,6.37241 3.90806,12.82228 4.2156,14.33303 0.64159,3.15163 0.9885,3.03028 1.76878,-0.61875 0.3059,-1.43054 2.18761,-7.76158 4.18159,-14.06896 l 3.62541,-11.46798 h 3.7512 c 2.79919,0 3.69719,0.15002 3.53838,0.59113 -0.11705,0.32512 -2.85312,8.40934 -6.08015,17.96493 l -5.86734,17.37379 -4.07528,0.006 -4.07528,0.006 z m 31.3918,-0.35468 V 199.8453 h 10.16748 10.16749 v 2.82409 2.82409 l -6.50246,0.13157 -6.50247,0.13158 v 4.0197 4.0197 l 6.02956,0.13236 6.02956,0.13236 v 3.05976 3.05976 h -6.14779 -6.14778 v 4.72906 4.72907 h 6.62069 6.62069 v 3.07389 3.07389 h -10.16749 -10.16748 z m 28.37438,0 V 199.8453 h 4.68942 4.68941 l 7.32421,12.65024 c 4.02831,6.95764 7.61069,13.03928 7.96083,13.51476 0.53763,0.73009 0.61226,-1.23695 0.47994,-12.65024 l -0.15668,-13.51476 h 3.3488 3.3488 v 17.98698 17.98699 l -4.82146,-0.13477 -4.82146,-0.13477 -7.49278,-13.00493 c -4.12103,-7.15271 -7.68593,-13.32414 -7.922,-13.71428 -0.25921,-0.42839 -0.31562,4.76952 -0.14243,13.12315 l 0.28678,13.83251 h -3.38569 -3.38569 z M 462.50257,207.17617 c -0.85059,-0.59856 -1.06755,-1.27344 -1.18227,-3.67754 l -0.1405,-2.94445 -14.10984,-0.12533 c -18.38529,-0.1633 -17.51551,0.65454 -9.92549,-9.3328 4.09134,-5.38361 9.59167,-12.69377 16.94173,-22.51627 2.34089,-3.12832 6.06687,-8.06705 8.27995,-10.97496 2.21308,-2.9079 5.01356,-6.68153 6.22328,-8.38584 5.2035,-7.33096 5.12239,-7.63782 5.12239,19.38024 v 22.26037 h 2.78505 c 4.2592,0 4.86206,0.69971 4.68576,5.43843 l -0.14076,3.78325 -3.5468,0.23645 -3.5468,0.23646 -0.23645,3.54679 -0.23645,3.5468 -4.96552,0.13074 c -3.88068,0.10218 -5.19312,-0.0294 -6.00728,-0.60234 z m -1.08632,-22.93726 c 0,-3.64138 -0.0782,-6.62069 -0.1739,-6.62069 -0.0956,0 -1.53211,1.82108 -3.19212,4.04685 -1.66002,2.22577 -3.81624,5.07594 -4.79161,6.33371 -2.33108,3.006 -2.49308,2.86081 3.19212,2.86081 h 4.96551 z m -76.09985,15.28562 c -0.59806,-0.67461 0.89125,-2.28256 13.65252,-14.74005 18.3085,-17.87268 21.00707,-21.64025 20.14653,-28.12733 -2.17653,-16.40747 -23.5531,-14.30734 -24.30086,2.38741 -0.25861,5.7738 1.65083,9.3668 6.40316,12.04885 3.6264,2.04661 3.61661,2.33007 -0.21263,6.15931 l -3.3259,3.3259 -2.86803,-1.77025 c -13.83832,-8.54149 -16.60128,-25.35101 -5.9189,-36.0098 15.20171,-15.16814 42.32136,-4.70182 42.43318,16.3763 0.0426,8.04067 -3.43222,13.81379 -14.88028,24.722 -3.60957,3.43935 -6.56575,6.41297 -6.56929,6.60804 -0.004,0.19508 4.41996,0.35468 9.83001,0.35468 11.62118,0 10.97143,-0.31367 10.97143,5.29656 v 4.16157 l -22.34483,-0.018 c -19.88039,-0.016 -22.41887,-0.1015 -23.01611,-0.7752 z m 215.60724,-24.52339 c -38.02766,-5.99636 -31.10385,-70.37082 7.5665,-70.34985 18.4745,0.01 28.84729,12.31573 28.84729,34.22282 v 3.74903 h -17.80606 -17.80606 l 0.30393,5.32142 c 0.88899,15.56515 7.16586,23.14088 17.10066,20.63926 5.39044,-1.35733 8.33623,-6.13838 8.65499,-14.04715 0.18891,-4.68703 0.31027,-5.31119 0.98256,-5.05313 0.42187,0.16193 2.58675,0.84842 4.81086,1.52554 l 4.04382,1.23112 -0.37104,3.08204 c -1.88244,15.63638 -15.4284,22.97435 -36.32745,19.6789 z m 15.34853,-45.2647 c -1.66991,-26.92035 -14.33165,-24.42505 -14.39784,2.83744 l -0.005,2.00985 h 7.35171 7.3517 z m 31.94211,10.53016 v -34.05724 l 4.84729,-0.005 c 2.66601,-0.003 7.6138,-0.31766 10.99508,-0.70014 3.38128,-0.38247 6.733,-0.69956 7.44827,-0.70463 l 1.3005,-0.009 0.0248,4.84729 c 0.024,4.70024 0.049,4.81142 0.82107,3.66502 12.19788,-18.110898 29.59009,-8.05294 23.7164,13.71525 l -1.02057,3.78228 h -8.22405 c -4.52323,0 -8.22079,-0.1596 -8.2168,-0.35468 0.004,-0.19507 0.40268,-1.95073 0.88596,-3.90147 1.46316,-5.90597 1.55871,-6.91481 0.82188,-8.67829 -1.77588,-4.25027 -5.02102,-1.84658 -7.56631,5.6044 -0.9116,2.66857 -0.98445,4.25871 -1.22406,26.71921 l -0.25478,23.88177 -12.17734,0.12621 -12.17734,0.12621 z m 72.82002,31.32206 c -0.56174,-1.49557 -1.62326,-4.52808 -2.35894,-6.73892 -0.73568,-2.21083 -2.85297,-8.38226 -4.70508,-13.71428 -6.71244,-19.32429 -8.66253,-24.96884 -11.35498,-32.86699 -1.50734,-4.42168 -2.97898,-8.63849 -3.27032,-9.37069 -1.12867,-2.83657 -1.71066,-2.71516 12.35656,-2.5778 l 12.88627,0.12583 1.05519,3.07389 c 0.58035,1.69064 2.78012,8.6069 4.88838,15.36946 2.10826,6.76256 4.22043,13.466 4.69373,14.89654 0.47329,1.43055 1.43776,4.46306 2.14326,6.73892 1.58434,5.11086 1.55264,5.11545 3.37365,-0.48845 0.82129,-2.52741 3.5577,-10.97953 6.08092,-18.78248 2.52321,-7.80296 5.08476,-15.67685 5.69232,-17.49754 l 1.10466,-3.31034 3.41056,-0.14044 c 4.91218,-0.20227 4.81309,-0.33898 3.2505,4.48453 -1.989,6.13977 -18.25194,54.55687 -19.94531,59.38004 l -1.45279,4.13793 h -8.41362 -8.41362 z m 46.56985,2.12808 c -0.12418,-0.32513 -0.1707,-15.59409 -0.10339,-33.93104 l 0.12239,-33.33989 2.36453,-0.1154 c 5.22212,-0.25487 21.25873,-1.61646 21.61232,-1.83499 0.20781,-0.12843 0.37783,15.52683 0.37783,34.78947 v 35.02298 h -12.07396 c -9.22348,0 -12.12725,-0.13956 -12.29972,-0.59113 z m 32.41309,-3.97586 v -4.567 l 2.7888,-4.77291 c 1.53385,-2.62509 3.30797,-5.73054 3.94251,-6.90098 0.63453,-1.17044 3.3285,-5.9167 5.98659,-10.54724 2.6581,-4.63054 5.32375,-9.31231 5.92368,-10.40394 2.87968,-5.23991 9.18106,-16.32138 9.93744,-17.47576 l 0.84995,-1.29719 h -13.29577 -13.29576 v -3.78325 -3.78325 h 26.71921 26.71921 v 3.91487 3.91488 l -3.84571,6.84374 c -2.11513,3.76406 -4.31809,7.69498 -4.89546,8.73537 -0.57737,1.04039 -3.13846,5.61576 -5.6913,10.16748 -7.53369,13.43257 -10.34348,18.44902 -12.64813,22.58128 l -2.17593,3.90148 h 14.62826 14.62827 v 4.01971 4.0197 h -28.13793 -28.13793 z m 65.00563,3.97586 c -0.12418,-0.32513 -0.1707,-15.59409 -0.10339,-33.93104 l 0.12239,-33.33989 2.60098,-0.11385 c 4.67374,-0.20457 21.01606,-1.61416 21.38943,-1.84492 0.20035,-0.12382 0.36427,15.53521 0.36427,34.79785 v 35.02298 h -12.07396 c -9.22348,0 -12.12725,-0.13956 -12.29972,-0.59113 z M 65.708095,167.43002 C 39.516631,164.06254 27.543671,141.05866 34.221532,106.93427 42.059956,66.879322 102.1518,58.784006 104.69108,97.440918 c 0.28539,4.344672 0.27375,4.410412 -0.84248,4.761362 -0.62252,0.19572 -3.09487,1.28379 -5.494122,2.41792 -2.399248,1.13414 -4.474125,2.06206 -4.610837,2.06206 -0.136712,0 -0.248567,-2.4082 -0.248567,-5.35157 0,-26.403377 -23.889295,-29.841565 -30.502189,-4.389924 -3.212965,12.366034 -3.095664,38.143814 0.222216,48.833744 8.415926,27.1154 37.899429,15.18346 34.269583,-13.86886 -0.311594,-2.49391 -0.274038,-2.6505 0.557354,-2.32382 0.490303,0.19265 2.875732,0.8452 5.300942,1.45011 5.4935,1.37021 5.05339,0.71334 5.02219,7.49559 -0.0943,20.49397 -17.313526,32.16095 -42.657075,28.90249 z m 76.023425,0.0412 c -0.39014,-0.0945 -2.27246,-0.42669 -4.18292,-0.73828 -15.60424,-2.54492 -23.66426,-14.41437 -23.11564,-34.04088 0.73218,-26.19366 20.06025,-41.903236 42.4941,-34.538584 11.54265,3.789254 18.38082,15.947554 18.38082,32.681174 v 3.74903 h -17.80495 -17.80494 l 0.32317,5.71845 c 0.88319,15.62759 8.00968,23.62208 17.90837,20.08959 5.2626,-1.87803 7.52697,-5.86464 7.83165,-13.78823 l 0.20155,-5.24128 1.95336,0.64144 c 1.07435,0.35278 3.17701,0.97079 4.67258,1.37335 l 2.71921,0.73193 -0.006,2.21274 c -0.0357,14.06852 -17.46551,25.0493 -33.57075,21.14955 z m 12.50711,-40.88662 c 2.65753,-4.29998 -2.96596,-23.21273 -6.90204,-23.21273 -4.33749,0 -9.71194,16.71745 -7.35177,22.86796 0.33635,0.87651 13.72503,1.20036 14.25381,0.34477 z m 122.85387,39.65521 c -3.264,-0.64344 -7.58124,-3.20666 -9.05567,-5.37651 -2.64405,-3.89114 -2.5945,-3.37501 -2.8633,-29.82641 l -0.24989,-24.59108 -3.90147,-0.13735 -3.90148,-0.13735 v -3.74501 -3.744995 l 3.90148,-0.137352 3.90147,-0.137352 0.23646,-5.91133 0.23645,-5.911329 3.31034,-1.058881 c 5.04753,-1.614552 10.37563,-3.760883 15.68645,-6.319007 2.64528,-1.274181 4.92897,-2.316693 5.07487,-2.316693 0.14589,0 0.32246,4.841379 0.39237,10.75862 l 0.1271,10.75862 5.3202,0.133715 5.3202,0.133715 v 3.752269 3.75228 l -5.3202,0.13371 -5.3202,0.13372 -0.12248,24.78586 c -0.13577,27.47483 -0.18486,26.99738 2.77545,26.99738 1.17815,0 1.54976,-0.26721 1.98866,-1.42999 0.53716,-1.4231 0.55348,-1.42862 3.38749,-1.14517 4.12295,0.41237 4.08096,0.38579 3.47464,2.19907 -2.30111,6.88178 -13.13789,10.60682 -24.39894,8.3869 z M 186.18473,132.29192 V 98.315374 l 6.97537,-0.330761 c 3.83645,-0.181918 9.27306,-0.594778 12.08135,-0.917467 6.15232,-0.706937 5.53441,-1.325063 5.53441,5.536304 v 5.69458 l 3.48651,-3.47873 c 8.30227,-8.283746 18.72578,-10.584374 27.96872,-6.173125 7.39006,3.526945 7.52982,4.237905 7.69192,39.129675 l 0.13237,28.49261 h -12.29129 -12.2913 l -0.13664,-26.83743 c -0.14844,-29.15485 -0.13334,-28.99046 -2.79444,-30.41464 -2.49766,-1.33671 -7.02996,2.09144 -9.28914,7.02613 -2.40576,5.25486 -2.4651,5.9471 -2.4711,28.82693 l -0.006,21.39901 H 198.4799 186.18434 Z m 260.12112,3.97105 c -1.28335,-1.36606 -1.31077,-1.27415 2.15833,-7.23399 1.47673,-2.537 4.70513,-8.12406 7.17421,-12.41568 2.46909,-4.29163 5.23549,-9.07981 6.14756,-10.6404 0.91207,-1.56059 2.61798,-4.5399 3.79092,-6.620686 1.17293,-2.080788 2.19946,-3.865097 2.28117,-3.965132 0.30993,-0.379415 3.07102,1.05558 3.47174,1.804337 0.46972,0.877689 -0.0336,1.876015 -7.11502,14.113181 -2.44952,4.23293 -4.9857,8.64632 -5.63595,9.80754 -9.94167,17.75395 -9.88878,17.68866 -12.27296,15.15083 z m -19.76991,-17.83245 c -0.44577,-0.44577 -0.58767,-4.56146 -0.58767,-17.04481 V 84.928569 h 2.52769 c 4.29585,0 4.12523,-0.761912 3.98116,17.778271 l -0.12461,16.03454 -2.60446,0.1384 c -1.61764,0.086 -2.82711,-0.0843 -3.19211,-0.44926 z M 774.75221,97.04646 c -8.7421,-1.965907 -8.61967,-13.997468 0.16859,-16.568432 7.57718,-2.216664 14.80335,0.417465 16.11219,5.873313 1.97482,8.23199 -5.47409,13.125307 -16.28078,10.695119 z m 99.03843,0.333076 c -5.94571,-0.949 -8.8473,-5.347095 -7.34601,-11.13473 2.35285,-9.070487 20.97731,-8.624031 22.23673,0.533047 1.11669,8.119239 -4.66296,12.234146 -14.89072,10.601683 z"
         id="path2" />
    </g>
  </g>
</svg>
